<svg width="390" height="225" viewBox="0 0 390 225" fill="none" xmlns="http://www.w3.org/2000/svg">
<path d="M31.344 92.2C31.6 93.416 31.8453 94.7067 32.08 96.072C32.336 97.416 32.5493 98.792 32.72 100.2C32.8907 101.587 32.976 102.952 32.976 104.296V106.792H26.48V104.296C26.48 102.973 26.5547 101.608 26.704 100.2C26.8533 98.792 27.056 97.416 27.312 96.072C27.568 94.7067 27.8453 93.416 28.144 92.2H31.344ZM29.712 83.688C30.8213 83.688 31.664 83.944 32.24 84.456C32.816 84.9467 33.104 85.64 33.104 86.536C33.104 87.3253 32.8053 88.008 32.208 88.584C31.632 89.1387 30.8 89.416 29.712 89.416C28.5813 89.416 27.728 89.16 27.152 88.648C26.5973 88.136 26.32 87.432 26.32 86.536C26.32 85.768 26.608 85.1067 27.184 84.552C27.76 83.976 28.6027 83.688 29.712 83.688ZM53.18 101.32C51.3453 101.32 49.6493 101.043 48.092 100.488C46.5347 99.9333 45.1693 99.144 43.996 98.12C42.8227 97.0747 41.916 95.848 41.276 94.44C40.636 93.0107 40.316 91.432 40.316 89.704C40.316 88.0187 40.6467 86.472 41.308 85.064C41.9907 83.656 42.908 82.4293 44.06 81.384C45.2333 80.3387 46.5987 79.5387 48.156 78.984C49.7347 78.4293 51.4307 78.152 53.244 78.152C54.5027 78.152 55.7293 78.3013 56.924 78.6C58.1187 78.8987 59.2173 79.3147 60.22 79.848C61.244 80.3813 62.108 80.9893 62.812 81.672L59.612 85.768C59.0787 85.2773 58.4813 84.84 57.82 84.456C57.18 84.0507 56.4653 83.7413 55.676 83.528C54.8867 83.2933 54.0013 83.176 53.02 83.176C52.1027 83.176 51.2173 83.3253 50.364 83.624C49.532 83.9227 48.7747 84.3493 48.092 84.904C47.4307 85.4587 46.8973 86.152 46.492 86.984C46.108 87.7947 45.916 88.7227 45.916 89.768C45.916 90.792 46.1187 91.72 46.524 92.552C46.9293 93.3627 47.484 94.056 48.188 94.632C48.9133 95.1867 49.7347 95.6133 50.652 95.912C51.5907 96.1893 52.5827 96.328 53.628 96.328C54.6307 96.328 55.5267 96.2 56.316 95.944C57.1053 95.6667 57.82 95.3253 58.46 94.92C59.1 94.4933 59.6653 94.088 60.156 93.704L62.748 97.896C62.1507 98.4507 61.3507 98.9947 60.348 99.528C59.3667 100.04 58.2573 100.467 57.02 100.808C55.804 101.149 54.524 101.32 53.18 101.32ZM69.445 101V78.6H87.557V83.24H74.725V96.36H87.877V101H69.445ZM72.197 91.816V87.4H86.117V91.816H72.197ZM95.6325 101V78.6H101.073V96.2H113.553V101H95.6325ZM120.32 101V78.6H138.432V83.24H125.6V96.36H138.752V101H120.32ZM123.072 91.816V87.4H136.992V91.816H123.072ZM146.508 101V78.6H157.996C159.766 78.6 161.27 78.824 162.508 79.272C163.745 79.72 164.673 80.3493 165.292 81.16C165.91 81.9707 166.22 82.952 166.22 84.104C166.22 85.3627 165.868 86.4293 165.164 87.304C164.481 88.1787 163.446 88.7867 162.06 89.128L162.124 88.52C163.105 88.7333 163.99 89.0853 164.78 89.576C165.59 90.0667 166.23 90.7067 166.7 91.496C167.169 92.264 167.404 93.1707 167.404 94.216C167.404 95.4747 167.158 96.5413 166.668 97.416C166.177 98.2693 165.505 98.9627 164.652 99.496C163.82 100.008 162.881 100.392 161.836 100.648C160.79 100.883 159.713 101 158.604 101H146.508ZM151.628 96.456H158.604C159.286 96.456 159.884 96.3707 160.396 96.2C160.908 96.008 161.313 95.7307 161.612 95.368C161.91 94.984 162.06 94.5147 162.06 93.96C162.06 93.384 161.878 92.9253 161.516 92.584C161.153 92.2213 160.694 91.9653 160.14 91.816C159.585 91.6453 159.02 91.56 158.444 91.56H151.628V96.456ZM151.628 87.496H157.708C158.348 87.496 158.902 87.4107 159.372 87.24C159.862 87.048 160.236 86.792 160.492 86.472C160.748 86.152 160.876 85.7467 160.876 85.256C160.876 84.552 160.566 84.0293 159.948 83.688C159.329 83.3253 158.518 83.144 157.516 83.144H151.628V87.496ZM174.57 101V78.6H186.25C187.893 78.6 189.322 78.8987 190.538 79.496C191.754 80.0933 192.693 80.936 193.354 82.024C194.037 83.0907 194.378 84.3387 194.378 85.768C194.378 87.176 194.015 88.456 193.29 89.608C192.586 90.7387 191.615 91.624 190.378 92.264C189.162 92.904 187.797 93.224 186.282 93.224H179.754V101H174.57ZM189.258 101L182.474 90.888L188.106 90.088L195.53 101H189.258ZM179.754 89.064H185.706C186.325 89.064 186.869 88.936 187.338 88.68C187.829 88.424 188.213 88.072 188.49 87.624C188.789 87.1547 188.938 86.6213 188.938 86.024C188.938 85.4267 188.778 84.9147 188.458 84.488C188.159 84.0613 187.754 83.7307 187.242 83.496C186.73 83.2613 186.133 83.144 185.45 83.144H179.754V89.064ZM199.559 101L209.671 78.6H214.567L224.647 101H219.079L213.511 88.552C213.298 88.104 213.095 87.656 212.903 87.208C212.732 86.7387 212.562 86.28 212.391 85.832C212.22 85.3627 212.06 84.904 211.911 84.456C211.762 83.9867 211.623 83.5387 211.495 83.112L212.615 83.08C212.466 83.5707 212.316 84.04 212.167 84.488C212.018 84.936 211.847 85.3947 211.655 85.864C211.484 86.312 211.303 86.76 211.111 87.208C210.919 87.656 210.727 88.1147 210.535 88.584L204.999 101H199.559ZM204.295 96.904L206.023 92.808H218.087L219.239 96.904H204.295ZM230.164 101V78.6H235.028L244.34 91.528L241.076 91.496L250.42 78.6H255.22V101H249.94V93.832C249.94 91.9973 249.982 90.312 250.068 88.776C250.153 87.2187 250.324 85.6507 250.58 84.072L251.124 85.832L243.7 95.56H241.588L234.196 85.8L234.804 84.072C235.06 85.608 235.23 87.144 235.316 88.68C235.401 90.216 235.444 91.9333 235.444 93.832V101H230.164ZM275.403 101.32C273.483 101.32 271.723 101.032 270.123 100.456C268.545 99.8587 267.169 99.0373 265.995 97.992C264.843 96.9467 263.947 95.72 263.307 94.312C262.667 92.8827 262.347 91.3467 262.347 89.704C262.347 88.04 262.667 86.504 263.307 85.096C263.947 83.688 264.854 82.4613 266.027 81.416C267.201 80.3707 268.577 79.56 270.155 78.984C271.734 78.3867 273.473 78.088 275.371 78.088C277.291 78.088 279.041 78.376 280.619 78.952C282.219 79.528 283.595 80.3493 284.747 81.416C285.921 82.4613 286.817 83.688 287.435 85.096C288.075 86.504 288.395 88.04 288.395 89.704C288.395 91.368 288.075 92.904 287.435 94.312C286.817 95.72 285.921 96.9573 284.747 98.024C283.595 99.0693 282.219 99.88 280.619 100.456C279.041 101.032 277.302 101.32 275.403 101.32ZM275.403 96.2C276.491 96.2 277.494 96.04 278.411 95.72C279.329 95.3787 280.118 94.92 280.779 94.344C281.441 93.7467 281.953 93.0533 282.315 92.264C282.678 91.4747 282.859 90.6213 282.859 89.704C282.859 88.7867 282.678 87.9333 282.315 87.144C281.953 86.3547 281.441 85.672 280.779 85.096C280.118 84.4987 279.318 84.04 278.379 83.72C277.462 83.3787 276.47 83.208 275.403 83.208C274.315 83.208 273.313 83.3787 272.395 83.72C271.478 84.04 270.678 84.488 269.995 85.064C269.313 85.64 268.79 86.3333 268.427 87.144C268.086 87.9333 267.915 88.7867 267.915 89.704C267.915 90.6213 268.086 91.4853 268.427 92.296C268.79 93.0853 269.313 93.768 269.995 94.344C270.678 94.92 271.478 95.3787 272.395 95.72C273.313 96.04 274.315 96.2 275.403 96.2ZM304.498 101.32C302.834 101.32 301.309 101.149 299.922 100.808C298.557 100.467 297.33 99.9973 296.242 99.4C295.154 98.8027 294.173 98.088 293.298 97.256L296.146 93.16C297.575 94.504 299.015 95.4427 300.466 95.976C301.938 96.488 303.389 96.744 304.818 96.744C305.479 96.744 306.119 96.6693 306.738 96.52C307.378 96.3707 307.901 96.136 308.306 95.816C308.733 95.496 308.946 95.0693 308.946 94.536C308.946 94.1947 308.839 93.9067 308.626 93.672C308.413 93.416 308.125 93.2027 307.762 93.032C307.399 92.84 306.973 92.6907 306.482 92.584C306.013 92.4773 305.501 92.3813 304.946 92.296C304.391 92.2107 303.815 92.1253 303.218 92.04C301.853 91.848 300.626 91.5707 299.538 91.208C298.471 90.824 297.554 90.3547 296.786 89.8C296.039 89.224 295.474 88.552 295.09 87.784C294.706 87.016 294.514 86.1307 294.514 85.128C294.514 84.04 294.77 83.0587 295.282 82.184C295.794 81.3093 296.509 80.5733 297.426 79.976C298.343 79.3573 299.389 78.888 300.562 78.568C301.757 78.248 303.037 78.088 304.402 78.088C305.938 78.088 307.293 78.2373 308.466 78.536C309.661 78.8347 310.706 79.2507 311.602 79.784C312.498 80.3173 313.245 80.9147 313.842 81.576L310.898 85.128C310.343 84.616 309.703 84.1787 308.978 83.816C308.274 83.4533 307.527 83.176 306.738 82.984C305.949 82.792 305.159 82.696 304.37 82.696C303.538 82.696 302.813 82.7813 302.194 82.952C301.575 83.1013 301.085 83.3253 300.722 83.624C300.359 83.9227 300.178 84.3067 300.178 84.776C300.178 85.16 300.327 85.4907 300.626 85.768C300.946 86.0453 301.351 86.28 301.842 86.472C302.333 86.6427 302.877 86.7813 303.474 86.888C304.093 86.9947 304.701 87.0907 305.298 87.176C306.535 87.3467 307.709 87.5813 308.818 87.88C309.949 88.1573 310.941 88.5413 311.794 89.032C312.669 89.5227 313.341 90.1627 313.81 90.952C314.301 91.72 314.546 92.712 314.546 93.928C314.546 95.4853 314.109 96.8187 313.234 97.928C312.381 99.016 311.197 99.8587 309.682 100.456C308.189 101.032 306.461 101.32 304.498 101.32Z" fill="#3D1600"/>
<path d="M150.968 169L179.896 124.2H190.2L201.208 169H190.84L182.136 129.32H186.232L162.04 169H150.968ZM162.936 159.4L167.16 151.528H190.264L191.48 159.4H162.936ZM205.856 169L214.816 124.2H223.392L242.656 156.648L239.264 156.456L245.664 124.2H255.904L246.944 169H238.432L219.104 136.552L222.56 136.744L216.096 169H205.856ZM241.504 120.744C240.395 120.744 239.413 120.552 238.56 120.168C237.749 119.741 237.003 119.272 236.32 118.76C235.68 118.205 235.061 117.736 234.464 117.352C233.867 116.925 233.227 116.712 232.544 116.712C231.691 116.712 230.965 117.032 230.368 117.672C229.771 118.312 229.365 119.187 229.152 120.296H224.096C224.565 117.267 225.547 114.963 227.04 113.384C228.533 111.763 230.389 110.952 232.608 110.952C233.717 110.952 234.677 111.165 235.488 111.592C236.341 111.976 237.088 112.445 237.728 113C238.411 113.555 239.051 114.045 239.648 114.472C240.245 114.856 240.864 115.048 241.504 115.048C242.4 115.048 243.147 114.728 243.744 114.088C244.341 113.405 244.725 112.573 244.896 111.592H249.952C249.483 114.493 248.501 116.755 247.008 118.376C245.557 119.955 243.723 120.744 241.504 120.744ZM280.776 169.768C276.253 169.768 272.349 168.957 269.064 167.336C265.821 165.672 263.325 163.389 261.576 160.488C259.826 157.544 258.952 154.152 258.952 150.312C258.952 146.472 259.613 142.931 260.936 139.688C262.258 136.403 264.136 133.565 266.568 131.176C269.042 128.744 271.965 126.845 275.336 125.48C278.749 124.115 282.525 123.432 286.664 123.432C291.186 123.432 295.069 124.264 298.312 125.928C301.597 127.549 304.114 129.832 305.864 132.776C307.613 135.677 308.488 139.048 308.488 142.888C308.488 146.728 307.826 150.291 306.504 153.576C305.181 156.819 303.282 159.656 300.808 162.088C298.376 164.477 295.453 166.355 292.04 167.72C288.669 169.085 284.914 169.768 280.776 169.768ZM281.672 160.936C284.189 160.936 286.45 160.488 288.456 159.592C290.504 158.653 292.232 157.373 293.64 155.752C295.048 154.131 296.114 152.275 296.84 150.184C297.608 148.051 297.992 145.811 297.992 143.464C297.992 141.245 297.522 139.304 296.584 137.64C295.645 135.933 294.258 134.611 292.424 133.672C290.632 132.733 288.413 132.264 285.768 132.264C283.25 132.264 280.989 132.733 278.984 133.672C276.978 134.568 275.25 135.827 273.8 137.448C272.392 139.069 271.304 140.947 270.536 143.08C269.81 145.171 269.448 147.389 269.448 149.736C269.448 151.955 269.917 153.917 270.856 155.624C271.837 157.288 273.224 158.589 275.016 159.528C276.85 160.467 279.069 160.936 281.672 160.936ZM327.16 169.768C324.728 169.768 322.36 169.533 320.056 169.064C317.794 168.637 315.725 168.04 313.848 167.272C312.013 166.504 310.456 165.672 309.175 164.776L313.4 156.776C314.808 157.757 316.301 158.611 317.88 159.336C319.501 160.019 321.186 160.552 322.936 160.936C324.685 161.277 326.434 161.448 328.184 161.448C330.104 161.448 331.746 161.235 333.112 160.808C334.52 160.381 335.586 159.784 336.312 159.016C337.08 158.248 337.464 157.309 337.464 156.2C337.464 155.176 337.058 154.344 336.248 153.704C335.437 153.064 334.37 152.531 333.048 152.104C331.768 151.635 330.338 151.187 328.76 150.76C327.181 150.333 325.581 149.843 323.96 149.288C322.381 148.691 320.93 147.965 319.608 147.112C318.328 146.216 317.282 145.085 316.472 143.72C315.661 142.355 315.256 140.648 315.256 138.6C315.256 135.528 316.088 132.861 317.752 130.6C319.458 128.339 321.848 126.589 324.92 125.352C327.992 124.072 331.597 123.432 335.736 123.432C338.765 123.432 341.624 123.773 344.312 124.456C347 125.096 349.304 126.035 351.224 127.272L347.319 135.208C345.613 134.056 343.714 133.203 341.624 132.648C339.533 132.051 337.378 131.752 335.16 131.752C333.154 131.752 331.426 131.987 329.976 132.456C328.568 132.925 327.48 133.587 326.712 134.44C325.986 135.251 325.624 136.189 325.624 137.256C325.624 138.323 326.008 139.197 326.776 139.88C327.586 140.52 328.653 141.075 329.976 141.544C331.298 141.971 332.749 142.397 334.328 142.824C335.906 143.251 337.485 143.741 339.064 144.296C340.642 144.851 342.093 145.555 343.416 146.408C344.738 147.261 345.805 148.349 346.616 149.672C347.426 150.952 347.832 152.573 347.832 154.536C347.832 157.608 346.978 160.296 345.272 162.6C343.565 164.861 341.154 166.632 338.04 167.912C334.968 169.149 331.341 169.768 327.16 169.768ZM355.428 153.448L359.332 124.2H371.236L363.364 153.448H355.428ZM357.092 169.512C355.385 169.512 353.977 169 352.868 167.976C351.759 166.909 351.204 165.629 351.204 164.136C351.204 162.344 351.823 160.872 353.06 159.72C354.34 158.568 355.876 157.992 357.668 157.992C359.375 157.992 360.761 158.504 361.828 159.528C362.937 160.509 363.492 161.747 363.492 163.24C363.492 164.392 363.193 165.459 362.596 166.44C362.041 167.379 361.273 168.125 360.292 168.68C359.353 169.235 358.287 169.512 357.092 169.512Z" fill="url(#paint0_linear_29_4)"/>
<path d="M43.48 173.96C37.208 173.96 32.152 173 28.312 171.08C24.152 169.032 22.072 166.152 22.072 162.44C22.072 160.456 22.68 158.344 23.896 156.104C25.496 153.224 28.664 150.76 33.4 148.712C37.432 147.048 40.92 146.216 43.864 146.216C44.632 146.216 45.016 146.472 45.016 146.984C45.016 147.624 44.568 147.944 43.672 147.944C41.624 147.944 39 148.904 35.8 150.824C32.216 153.064 30.104 155.304 29.464 157.544C29.336 158.12 29.208 158.696 29.08 159.272C29.016 159.784 28.984 160.296 28.984 160.808C28.984 166.376 32.792 169.832 40.408 171.176C47.832 172.52 55.544 171.368 63.544 167.72C72.504 163.56 78.552 157.576 81.688 149.768C82.136 148.68 82.36 147.592 82.36 146.504C82.36 143.944 80.92 142.056 78.04 140.84C75.544 139.752 72.472 139.208 68.824 139.208C65.048 139.208 61.912 139.688 59.416 140.648C58.84 140.904 58.232 141.032 57.592 141.032C56.44 141.032 55.864 140.488 55.864 139.4C55.864 138.696 56.12 138.056 56.632 137.48C57.144 136.84 57.816 136.52 58.648 136.52C64.152 136.52 69.304 135.592 74.104 133.736C80.248 131.304 83.704 127.88 84.472 123.464C84.536 123.208 84.568 122.984 84.568 122.792C84.568 122.6 84.568 122.408 84.568 122.216C84.568 119.464 82.744 118.088 79.096 118.088C75.896 118.088 71.992 118.952 67.384 120.68C63.288 122.216 59.736 123.944 56.728 125.864C56.472 126.056 56.248 126.152 56.056 126.152C55.608 126.152 55.384 125.736 55.384 124.904C55.384 122.984 55.992 121.896 57.208 121.64C58.68 121.192 61.016 119.464 64.216 116.456C64.6 116.072 64.952 115.944 65.272 116.072C65.592 116.2 65.752 116.424 65.752 116.744C65.752 117.128 65.56 117.512 65.176 117.896C64.984 118.024 64.728 118.28 64.408 118.664C71.256 115.72 76.984 114.248 81.592 114.248C87.864 114.248 90.872 117.16 90.616 122.984C90.296 128.552 84.568 133.064 73.432 136.52C83.096 137.544 87.928 140.936 87.928 146.696C87.928 147.656 87.8 148.552 87.544 149.384C85.624 156.936 79.96 163.08 70.552 167.816C62.296 171.912 53.272 173.96 43.48 173.96ZM102.69 173.864C101.41 173.864 100.194 173.768 99.0423 173.576C93.7303 172.872 91.0742 169.096 91.0742 162.248C91.0742 155.528 93.5703 148.104 98.5623 139.976C101.634 134.856 106.05 129.864 111.81 125C117.314 120.264 122.882 116.616 128.514 114.056C128.258 113.8 128.13 113.544 128.13 113.288C128.13 112.84 128.642 112.52 129.666 112.328C130.69 112.136 132.002 112.104 133.602 112.232C135.458 111.592 137.922 111.272 140.994 111.272C145.794 111.272 148.194 112.168 148.194 113.96C148.066 114.856 147.426 115.048 146.274 114.536C144.162 113.768 142.21 113.416 140.418 113.48C142.402 114.12 144.226 115.24 145.89 116.84C149.474 120.232 151.266 124.552 151.266 129.8C151.266 134.6 149.826 139.656 146.946 144.968C144.194 150.216 140.45 154.92 135.714 159.08C124.642 168.936 113.634 173.864 102.69 173.864ZM100.194 171.464C109.282 172.232 119.618 167.528 131.202 157.352C141.186 148.584 146.178 139.048 146.178 128.744C146.178 123.88 145.154 120.616 143.106 118.952C139.97 116.52 137.026 115.048 134.274 114.536C128.322 116.392 122.05 120.456 115.458 126.728C110.594 131.464 106.562 136.296 103.362 141.224C98.1143 149.352 95.4903 156.872 95.4903 163.784C95.4903 168.648 97.0583 171.208 100.194 171.464Z" fill="url(#paint1_linear_29_4)"/>
<path d="M25.9242 199.13C25.2395 199.13 24.6025 199.022 24.0132 198.805C23.4239 198.58 22.9082 198.259 22.4662 197.843C22.0242 197.427 21.6819 196.933 21.4392 196.361C21.1965 195.78 21.0752 195.143 21.0752 194.45C21.0752 193.791 21.2052 193.18 21.4652 192.617C21.7252 192.054 22.0805 191.564 22.5312 191.148C22.9819 190.723 23.5019 190.398 24.0912 190.173C24.6805 189.939 25.3089 189.822 25.9762 189.822C26.4962 189.822 26.9989 189.896 27.4842 190.043C27.9782 190.182 28.4202 190.368 28.8102 190.602C29.2089 190.836 29.5295 191.092 29.7722 191.369L28.8882 192.461C28.6022 192.201 28.3032 191.98 27.9912 191.798C27.6792 191.607 27.3499 191.464 27.0032 191.369C26.6565 191.265 26.2882 191.213 25.8982 191.213C25.4562 191.213 25.0315 191.291 24.6242 191.447C24.2169 191.603 23.8529 191.824 23.5322 192.11C23.2202 192.387 22.9689 192.725 22.7782 193.124C22.5962 193.523 22.5052 193.965 22.5052 194.45C22.5052 194.97 22.5962 195.434 22.7782 195.841C22.9689 196.248 23.2289 196.595 23.5582 196.881C23.8962 197.158 24.2775 197.371 24.7022 197.518C25.1355 197.665 25.5949 197.739 26.0802 197.739C26.5049 197.739 26.8905 197.687 27.2372 197.583C27.5839 197.47 27.9002 197.327 28.1862 197.154C28.4722 196.972 28.7322 196.786 28.9662 196.595L29.6552 197.752C29.4299 197.969 29.1222 198.185 28.7322 198.402C28.3509 198.61 27.9175 198.783 27.4322 198.922C26.9555 199.061 26.4529 199.13 25.9242 199.13ZM32.9007 199V192.175H34.2527V194.515L33.9797 194.242C34.0924 193.835 34.2874 193.466 34.5647 193.137C34.8507 192.799 35.1757 192.53 35.5397 192.331C35.9124 192.132 36.2981 192.032 36.6967 192.032C36.9394 192.032 37.1734 192.058 37.3987 192.11C37.6327 192.162 37.8147 192.227 37.9447 192.305L37.5937 193.722C37.4377 193.635 37.2514 193.57 37.0347 193.527C36.8267 193.475 36.6274 193.449 36.4367 193.449C36.1161 193.449 35.8214 193.505 35.5527 193.618C35.2927 193.731 35.0631 193.882 34.8637 194.073C34.6731 194.264 34.5214 194.476 34.4087 194.71C34.3047 194.944 34.2527 195.191 34.2527 195.451V199H32.9007ZM43.8828 199.13C43.0681 199.13 42.3445 198.983 41.7118 198.688C41.0791 198.385 40.5851 197.973 40.2298 197.453C39.8745 196.924 39.6968 196.326 39.6968 195.659C39.6968 195.104 39.8008 194.606 40.0088 194.164C40.2168 193.713 40.5071 193.332 40.8798 193.02C41.2525 192.699 41.6858 192.452 42.1798 192.279C42.6738 192.106 43.2025 192.019 43.7658 192.019C44.2771 192.019 44.7581 192.101 45.2088 192.266C45.6595 192.431 46.0538 192.66 46.3918 192.955C46.7298 193.25 46.9898 193.601 47.1718 194.008C47.3538 194.407 47.4405 194.849 47.4318 195.334L47.4188 195.984H40.8278L40.5288 194.918H46.2618L46.0668 195.061V194.749C46.0321 194.454 45.9021 194.194 45.6768 193.969C45.4515 193.744 45.1698 193.57 44.8318 193.449C44.5025 193.319 44.1471 193.254 43.7658 193.254C43.2285 193.254 42.7518 193.336 42.3358 193.501C41.9198 193.657 41.5948 193.908 41.3608 194.255C41.1355 194.593 41.0228 195.031 41.0228 195.568C41.0228 196.036 41.1485 196.448 41.3998 196.803C41.6598 197.15 42.0195 197.418 42.4788 197.609C42.9468 197.8 43.4798 197.895 44.0778 197.895C44.6238 197.895 45.0875 197.821 45.4688 197.674C45.8588 197.518 46.2055 197.327 46.5088 197.102L47.1328 198.09C46.8988 198.281 46.6041 198.454 46.2488 198.61C45.9021 198.766 45.5208 198.892 45.1048 198.987C44.6975 199.082 44.2901 199.13 43.8828 199.13ZM53.4287 199.13C52.7267 199.13 52.1027 198.978 51.5567 198.675C51.0107 198.363 50.5817 197.938 50.2697 197.401C49.9663 196.864 49.8147 196.257 49.8147 195.581C49.8147 194.888 49.975 194.277 50.2957 193.748C50.6163 193.211 51.054 192.79 51.6087 192.487C52.172 192.184 52.8133 192.032 53.5327 192.032C53.966 192.032 54.369 192.088 54.7417 192.201C55.1143 192.314 55.4393 192.465 55.7167 192.656C55.994 192.838 56.215 193.046 56.3797 193.28C56.5443 193.505 56.631 193.735 56.6397 193.969L56.2887 193.943V192.175H57.6407V199H56.2887V197.232L56.5747 197.245C56.5573 197.462 56.4577 197.683 56.2757 197.908C56.1023 198.125 55.8683 198.328 55.5737 198.519C55.2877 198.701 54.9583 198.848 54.5857 198.961C54.2217 199.074 53.836 199.13 53.4287 199.13ZM53.7537 197.895C54.265 197.895 54.7157 197.795 55.1057 197.596C55.4957 197.388 55.799 197.111 56.0157 196.764C56.2323 196.409 56.3407 196.014 56.3407 195.581C56.3407 195.139 56.2323 194.745 56.0157 194.398C55.799 194.051 55.4957 193.778 55.1057 193.579C54.7157 193.38 54.265 193.28 53.7537 193.28C53.251 193.28 52.8047 193.38 52.4147 193.579C52.0333 193.778 51.73 194.051 51.5047 194.398C51.288 194.745 51.1797 195.139 51.1797 195.581C51.1797 196.014 51.288 196.409 51.5047 196.764C51.73 197.111 52.0333 197.388 52.4147 197.596C52.8047 197.795 53.251 197.895 53.7537 197.895ZM61.5287 199V192.175H62.8677V193.865L62.4907 193.956C62.638 193.635 62.8547 193.332 63.1407 193.046C63.4267 192.751 63.769 192.509 64.1677 192.318C64.5663 192.127 64.9997 192.032 65.4677 192.032C66.1003 192.032 66.6247 192.153 67.0407 192.396C67.4653 192.63 67.7817 192.964 67.9897 193.397C68.2063 193.83 68.3147 194.337 68.3147 194.918V199H66.9757V195.074C66.9757 194.693 66.8933 194.368 66.7287 194.099C66.5727 193.822 66.3517 193.614 66.0657 193.475C65.7883 193.328 65.4633 193.258 65.0907 193.267C64.77 193.267 64.471 193.323 64.1937 193.436C63.925 193.549 63.691 193.696 63.4917 193.878C63.2923 194.06 63.1363 194.264 63.0237 194.489C62.9197 194.706 62.8677 194.927 62.8677 195.152V199H62.2047C62.0313 199 61.8883 199 61.7757 199C61.663 199 61.5807 199 61.5287 199ZM75.1147 199.13C74.378 199.13 73.728 198.978 73.1647 198.675C72.61 198.372 72.1767 197.951 71.8647 197.414C71.5614 196.877 71.4097 196.266 71.4097 195.581C71.4097 194.888 71.57 194.277 71.8907 193.748C72.2114 193.211 72.6534 192.79 73.2167 192.487C73.78 192.184 74.4214 192.032 75.1407 192.032C75.574 192.032 75.9814 192.088 76.3627 192.201C76.744 192.314 77.0777 192.465 77.3637 192.656C77.6584 192.847 77.8837 193.05 78.0397 193.267C78.2044 193.484 78.2867 193.7 78.2867 193.917L77.8967 193.943V189.38H79.2357V199H77.8967V197.232L78.1567 197.284C78.1567 197.492 78.07 197.704 77.8967 197.921C77.732 198.129 77.5067 198.328 77.2207 198.519C76.9434 198.701 76.6184 198.848 76.2457 198.961C75.8817 199.074 75.5047 199.13 75.1147 199.13ZM75.3617 197.934C75.873 197.934 76.3237 197.83 76.7137 197.622C77.1037 197.414 77.407 197.132 77.6237 196.777C77.8404 196.422 77.9487 196.023 77.9487 195.581C77.9487 195.139 77.8404 194.74 77.6237 194.385C77.407 194.03 77.1037 193.752 76.7137 193.553C76.3237 193.345 75.873 193.241 75.3617 193.241C74.859 193.241 74.4127 193.345 74.0227 193.553C73.6327 193.752 73.325 194.03 73.0997 194.385C72.883 194.74 72.7747 195.139 72.7747 195.581C72.7747 196.023 72.883 196.422 73.0997 196.777C73.325 197.132 73.6327 197.414 74.0227 197.622C74.4127 197.83 74.859 197.934 75.3617 197.934ZM86.1951 199.13C85.4064 199.13 84.7044 198.978 84.0891 198.675C83.4824 198.372 83.0014 197.951 82.6461 197.414C82.2994 196.877 82.1261 196.266 82.1261 195.581C82.1261 194.888 82.2994 194.277 82.6461 193.748C83.0014 193.211 83.4824 192.79 84.0891 192.487C84.7044 192.184 85.4064 192.032 86.1951 192.032C86.9837 192.032 87.6814 192.184 88.2881 192.487C88.8947 192.79 89.3714 193.211 89.7181 193.748C90.0734 194.277 90.2511 194.888 90.2511 195.581C90.2511 196.266 90.0734 196.877 89.7181 197.414C89.3714 197.951 88.8947 198.372 88.2881 198.675C87.6814 198.978 86.9837 199.13 86.1951 199.13ZM86.1951 197.908C86.7064 197.908 87.1657 197.808 87.5731 197.609C87.9891 197.41 88.3141 197.137 88.5481 196.79C88.7907 196.435 88.9034 196.032 88.8861 195.581C88.9034 195.122 88.7907 194.719 88.5481 194.372C88.3141 194.025 87.9891 193.752 87.5731 193.553C87.1657 193.354 86.7064 193.254 86.1951 193.254C85.6837 193.254 85.2201 193.354 84.8041 193.553C84.3967 193.752 84.0717 194.03 83.8291 194.385C83.5951 194.732 83.4824 195.13 83.4911 195.581C83.4824 196.032 83.5951 196.435 83.8291 196.79C84.0717 197.137 84.3967 197.41 84.8041 197.609C85.2201 197.808 85.6837 197.908 86.1951 197.908ZM98.4049 199V192.175H99.7569V193.917L99.3669 193.93C99.4362 193.722 99.5576 193.51 99.7309 193.293C99.9129 193.076 100.143 192.877 100.42 192.695C100.697 192.504 101.005 192.353 101.343 192.24C101.69 192.119 102.062 192.058 102.461 192.058C102.903 192.058 103.302 192.132 103.657 192.279C104.012 192.418 104.298 192.634 104.515 192.929C104.74 193.224 104.883 193.592 104.944 194.034L104.593 193.956L104.684 193.735C104.788 193.553 104.935 193.367 105.126 193.176C105.325 192.977 105.559 192.795 105.828 192.63C106.097 192.465 106.387 192.331 106.699 192.227C107.02 192.114 107.353 192.058 107.7 192.058C108.341 192.058 108.857 192.179 109.247 192.422C109.637 192.665 109.919 193.007 110.092 193.449C110.265 193.882 110.352 194.394 110.352 194.983V199H109V195.126C109 194.745 108.944 194.42 108.831 194.151C108.718 193.874 108.541 193.661 108.298 193.514C108.064 193.367 107.761 193.293 107.388 193.293C107.059 193.293 106.751 193.349 106.465 193.462C106.179 193.566 105.928 193.713 105.711 193.904C105.494 194.086 105.325 194.303 105.204 194.554C105.091 194.797 105.035 195.065 105.035 195.36V199H103.683V195.1C103.683 194.736 103.618 194.42 103.488 194.151C103.367 193.874 103.172 193.661 102.903 193.514C102.643 193.367 102.309 193.293 101.902 193.293C101.599 193.293 101.313 193.349 101.044 193.462C100.784 193.575 100.554 193.722 100.355 193.904C100.164 194.086 100.017 194.29 99.9129 194.515C99.8089 194.74 99.7569 194.961 99.7569 195.178V199H98.4049ZM116.893 199.13C116.191 199.13 115.567 198.978 115.021 198.675C114.475 198.363 114.046 197.938 113.734 197.401C113.43 196.864 113.279 196.257 113.279 195.581C113.279 194.888 113.439 194.277 113.76 193.748C114.08 193.211 114.518 192.79 115.073 192.487C115.636 192.184 116.277 192.032 116.997 192.032C117.43 192.032 117.833 192.088 118.206 192.201C118.578 192.314 118.903 192.465 119.181 192.656C119.458 192.838 119.679 193.046 119.844 193.28C120.008 193.505 120.095 193.735 120.104 193.969L119.753 193.943V192.175H121.105V199H119.753V197.232L120.039 197.245C120.021 197.462 119.922 197.683 119.74 197.908C119.566 198.125 119.332 198.328 119.038 198.519C118.752 198.701 118.422 198.848 118.05 198.961C117.686 199.074 117.3 199.13 116.893 199.13ZM117.218 197.895C117.729 197.895 118.18 197.795 118.57 197.596C118.96 197.388 119.263 197.111 119.48 196.764C119.696 196.409 119.805 196.014 119.805 195.581C119.805 195.139 119.696 194.745 119.48 194.398C119.263 194.051 118.96 193.778 118.57 193.579C118.18 193.38 117.729 193.28 117.218 193.28C116.715 193.28 116.269 193.38 115.879 193.579C115.497 193.778 115.194 194.051 114.969 194.398C114.752 194.745 114.644 195.139 114.644 195.581C114.644 196.014 114.752 196.409 114.969 196.764C115.194 197.111 115.497 197.388 115.879 197.596C116.269 197.795 116.715 197.895 117.218 197.895ZM128.373 201.99C127.714 201.99 127.12 201.908 126.592 201.743C126.072 201.587 125.651 201.396 125.331 201.171L125.812 200.092C125.994 200.196 126.215 200.3 126.475 200.404C126.735 200.517 127.025 200.608 127.346 200.677C127.666 200.755 128.009 200.794 128.373 200.794C128.858 200.794 129.278 200.703 129.634 200.521C129.998 200.339 130.275 200.075 130.466 199.728C130.665 199.381 130.765 198.957 130.765 198.454V197.427L130.908 197.518C130.864 197.769 130.691 198.021 130.388 198.272C130.093 198.523 129.72 198.731 129.27 198.896C128.828 199.052 128.355 199.13 127.853 199.13C127.133 199.13 126.492 198.978 125.929 198.675C125.374 198.372 124.936 197.951 124.616 197.414C124.304 196.877 124.148 196.266 124.148 195.581C124.148 194.888 124.312 194.277 124.642 193.748C124.971 193.211 125.422 192.79 125.994 192.487C126.566 192.184 127.22 192.032 127.957 192.032C128.182 192.032 128.429 192.062 128.698 192.123C128.975 192.175 129.248 192.257 129.517 192.37C129.785 192.474 130.032 192.595 130.258 192.734C130.492 192.873 130.678 193.024 130.817 193.189C130.964 193.345 131.042 193.505 131.051 193.67L130.765 193.774V192.175H132.104V198.298C132.104 198.905 132.008 199.438 131.818 199.897C131.627 200.365 131.358 200.751 131.012 201.054C130.674 201.366 130.275 201.6 129.816 201.756C129.365 201.912 128.884 201.99 128.373 201.99ZM128.217 197.895C128.728 197.895 129.179 197.795 129.569 197.596C129.967 197.397 130.275 197.124 130.492 196.777C130.708 196.422 130.817 196.023 130.817 195.581C130.817 195.13 130.708 194.732 130.492 194.385C130.275 194.038 129.967 193.765 129.569 193.566C129.179 193.358 128.728 193.254 128.217 193.254C127.697 193.254 127.233 193.358 126.826 193.566C126.418 193.765 126.098 194.043 125.864 194.398C125.63 194.745 125.513 195.139 125.513 195.581C125.513 196.014 125.63 196.409 125.864 196.764C126.098 197.111 126.418 197.388 126.826 197.596C127.233 197.795 127.697 197.895 128.217 197.895ZM136.078 199V192.175H137.417V199H136.078ZM136.728 190.589C136.442 190.589 136.221 190.515 136.065 190.368C135.909 190.221 135.831 190.013 135.831 189.744C135.831 189.493 135.909 189.289 136.065 189.133C136.229 188.977 136.45 188.899 136.728 188.899C137.014 188.899 137.235 188.973 137.391 189.12C137.547 189.267 137.625 189.475 137.625 189.744C137.625 189.995 137.542 190.199 137.378 190.355C137.222 190.511 137.005 190.589 136.728 190.589ZM144.187 199.13C143.485 199.13 142.861 198.978 142.315 198.675C141.769 198.363 141.34 197.938 141.028 197.401C140.725 196.864 140.573 196.257 140.573 195.581C140.573 194.888 140.734 194.277 141.054 193.748C141.375 193.211 141.813 192.79 142.367 192.487C142.931 192.184 143.572 192.032 144.291 192.032C144.725 192.032 145.128 192.088 145.5 192.201C145.873 192.314 146.198 192.465 146.475 192.656C146.753 192.838 146.974 193.046 147.138 193.28C147.303 193.505 147.39 193.735 147.398 193.969L147.047 193.943V192.175H148.399V199H147.047V197.232L147.333 197.245C147.316 197.462 147.216 197.683 147.034 197.908C146.861 198.125 146.627 198.328 146.332 198.519C146.046 198.701 145.717 198.848 145.344 198.961C144.98 199.074 144.595 199.13 144.187 199.13ZM144.512 197.895C145.024 197.895 145.474 197.795 145.864 197.596C146.254 197.388 146.558 197.111 146.774 196.764C146.991 196.409 147.099 196.014 147.099 195.581C147.099 195.139 146.991 194.745 146.774 194.398C146.558 194.051 146.254 193.778 145.864 193.579C145.474 193.38 145.024 193.28 144.512 193.28C144.01 193.28 143.563 193.38 143.173 193.579C142.792 193.778 142.489 194.051 142.263 194.398C142.047 194.745 141.938 195.139 141.938 195.581C141.938 196.014 142.047 196.409 142.263 196.764C142.489 197.111 142.792 197.388 143.173 197.596C143.563 197.795 144.01 197.895 144.512 197.895ZM158.521 201.99L160.159 198.818V199.845L156.233 192.175H157.793L159.86 196.478C160.06 196.842 160.233 197.189 160.38 197.518C160.528 197.847 160.632 198.142 160.692 198.402L160.445 198.441C160.549 198.181 160.671 197.882 160.809 197.544C160.957 197.206 161.126 196.833 161.316 196.426L163.188 192.175H164.761L161.368 199.039L159.951 201.99H158.521ZM175.184 199.13C174.482 199.13 173.84 199.03 173.26 198.831C172.688 198.632 172.211 198.311 171.83 197.869L172.74 197.063C173.043 197.375 173.394 197.613 173.793 197.778C174.2 197.934 174.651 198.012 175.145 198.012C175.335 198.012 175.53 197.999 175.73 197.973C175.929 197.947 176.111 197.899 176.276 197.83C176.449 197.761 176.583 197.67 176.679 197.557C176.783 197.444 176.835 197.31 176.835 197.154C176.835 196.894 176.661 196.695 176.315 196.556C176.141 196.495 175.933 196.435 175.691 196.374C175.448 196.305 175.171 196.24 174.859 196.179C174.339 196.066 173.884 195.945 173.494 195.815C173.104 195.685 172.787 195.516 172.545 195.308C172.363 195.143 172.224 194.957 172.129 194.749C172.033 194.532 171.986 194.285 171.986 194.008C171.986 193.705 172.064 193.436 172.22 193.202C172.376 192.959 172.588 192.751 172.857 192.578C173.134 192.396 173.455 192.262 173.819 192.175C174.183 192.08 174.577 192.032 175.002 192.032C175.374 192.032 175.751 192.071 176.133 192.149C176.523 192.227 176.891 192.348 177.238 192.513C177.584 192.678 177.875 192.881 178.109 193.124L177.381 194.008C177.173 193.843 176.934 193.696 176.666 193.566C176.397 193.427 176.12 193.323 175.834 193.254C175.556 193.176 175.292 193.137 175.041 193.137C174.833 193.137 174.629 193.15 174.43 193.176C174.23 193.202 174.044 193.25 173.871 193.319C173.706 193.38 173.572 193.466 173.468 193.579C173.372 193.683 173.325 193.809 173.325 193.956C173.333 194.06 173.364 194.16 173.416 194.255C173.476 194.342 173.559 194.42 173.663 194.489C173.819 194.593 174.035 194.688 174.313 194.775C174.599 194.853 174.924 194.927 175.288 194.996C175.747 195.083 176.167 195.187 176.549 195.308C176.93 195.429 177.246 195.581 177.498 195.763C177.714 195.91 177.875 196.088 177.979 196.296C178.091 196.495 178.148 196.729 178.148 196.998C178.148 197.44 178.013 197.821 177.745 198.142C177.485 198.463 177.129 198.71 176.679 198.883C176.228 199.048 175.73 199.13 175.184 199.13ZM184.508 199.13C183.719 199.13 183.017 198.978 182.402 198.675C181.795 198.372 181.314 197.951 180.959 197.414C180.612 196.877 180.439 196.266 180.439 195.581C180.439 194.888 180.612 194.277 180.959 193.748C181.314 193.211 181.795 192.79 182.402 192.487C183.017 192.184 183.719 192.032 184.508 192.032C185.296 192.032 185.994 192.184 186.601 192.487C187.207 192.79 187.684 193.211 188.031 193.748C188.386 194.277 188.564 194.888 188.564 195.581C188.564 196.266 188.386 196.877 188.031 197.414C187.684 197.951 187.207 198.372 186.601 198.675C185.994 198.978 185.296 199.13 184.508 199.13ZM184.508 197.908C185.019 197.908 185.478 197.808 185.886 197.609C186.302 197.41 186.627 197.137 186.861 196.79C187.103 196.435 187.216 196.032 187.199 195.581C187.216 195.122 187.103 194.719 186.861 194.372C186.627 194.025 186.302 193.752 185.886 193.553C185.478 193.354 185.019 193.254 184.508 193.254C183.996 193.254 183.533 193.354 183.117 193.553C182.709 193.752 182.384 194.03 182.142 194.385C181.908 194.732 181.795 195.13 181.804 195.581C181.795 196.032 181.908 196.435 182.142 196.79C182.384 197.137 182.709 197.41 183.117 197.609C183.533 197.808 183.996 197.908 184.508 197.908ZM191.744 199V192.175H193.083V193.865L192.706 193.956C192.854 193.635 193.07 193.332 193.356 193.046C193.642 192.751 193.985 192.509 194.383 192.318C194.782 192.127 195.215 192.032 195.683 192.032C196.316 192.032 196.84 192.153 197.256 192.396C197.681 192.63 197.997 192.964 198.205 193.397C198.422 193.83 198.53 194.337 198.53 194.918V199H197.191V195.074C197.191 194.693 197.109 194.368 196.944 194.099C196.788 193.822 196.567 193.614 196.281 193.475C196.004 193.328 195.679 193.258 195.306 193.267C194.986 193.267 194.687 193.323 194.409 193.436C194.141 193.549 193.907 193.696 193.707 193.878C193.508 194.06 193.352 194.264 193.239 194.489C193.135 194.706 193.083 194.927 193.083 195.152V199H192.42C192.247 199 192.104 199 191.991 199C191.879 199 191.796 199 191.744 199ZM202.536 199V192.175H203.888V194.515L203.615 194.242C203.727 193.835 203.922 193.466 204.2 193.137C204.486 192.799 204.811 192.53 205.175 192.331C205.547 192.132 205.933 192.032 206.332 192.032C206.574 192.032 206.808 192.058 207.034 192.11C207.268 192.162 207.45 192.227 207.58 192.305L207.229 193.722C207.073 193.635 206.886 193.57 206.67 193.527C206.462 193.475 206.262 193.449 206.072 193.449C205.751 193.449 205.456 193.505 205.188 193.618C204.928 193.731 204.698 193.882 204.499 194.073C204.308 194.264 204.156 194.476 204.044 194.71C203.94 194.944 203.888 195.191 203.888 195.451V199H202.536ZM210.625 199V192.175H211.964V199H210.625ZM211.275 190.589C210.989 190.589 210.768 190.515 210.612 190.368C210.456 190.221 210.378 190.013 210.378 189.744C210.378 189.493 210.456 189.289 210.612 189.133C210.776 188.977 210.997 188.899 211.275 188.899C211.561 188.899 211.782 188.973 211.938 189.12C212.094 189.267 212.172 189.475 212.172 189.744C212.172 189.995 212.089 190.199 211.925 190.355C211.769 190.511 211.552 190.589 211.275 190.589ZM218.487 199.13C217.785 199.13 217.144 199.03 216.563 198.831C215.991 198.632 215.515 198.311 215.133 197.869L216.043 197.063C216.347 197.375 216.698 197.613 217.096 197.778C217.504 197.934 217.954 198.012 218.448 198.012C218.639 198.012 218.834 197.999 219.033 197.973C219.233 197.947 219.415 197.899 219.579 197.83C219.753 197.761 219.887 197.67 219.982 197.557C220.086 197.444 220.138 197.31 220.138 197.154C220.138 196.894 219.965 196.695 219.618 196.556C219.445 196.495 219.237 196.435 218.994 196.374C218.752 196.305 218.474 196.24 218.162 196.179C217.642 196.066 217.187 195.945 216.797 195.815C216.407 195.685 216.091 195.516 215.848 195.308C215.666 195.143 215.528 194.957 215.432 194.749C215.337 194.532 215.289 194.285 215.289 194.008C215.289 193.705 215.367 193.436 215.523 193.202C215.679 192.959 215.892 192.751 216.16 192.578C216.438 192.396 216.758 192.262 217.122 192.175C217.486 192.08 217.881 192.032 218.305 192.032C218.678 192.032 219.055 192.071 219.436 192.149C219.826 192.227 220.195 192.348 220.541 192.513C220.888 192.678 221.178 192.881 221.412 193.124L220.684 194.008C220.476 193.843 220.238 193.696 219.969 193.566C219.701 193.427 219.423 193.323 219.137 193.254C218.86 193.176 218.596 193.137 218.344 193.137C218.136 193.137 217.933 193.15 217.733 193.176C217.534 193.202 217.348 193.25 217.174 193.319C217.01 193.38 216.875 193.466 216.771 193.579C216.676 193.683 216.628 193.809 216.628 193.956C216.637 194.06 216.667 194.16 216.719 194.255C216.78 194.342 216.862 194.42 216.966 194.489C217.122 194.593 217.339 194.688 217.616 194.775C217.902 194.853 218.227 194.927 218.591 194.996C219.051 195.083 219.471 195.187 219.852 195.308C220.234 195.429 220.55 195.581 220.801 195.763C221.018 195.91 221.178 196.088 221.282 196.296C221.395 196.495 221.451 196.729 221.451 196.998C221.451 197.44 221.317 197.821 221.048 198.142C220.788 198.463 220.433 198.71 219.982 198.883C219.532 199.048 219.033 199.13 218.487 199.13ZM227.278 199.13C226.576 199.13 225.952 198.978 225.406 198.675C224.86 198.363 224.431 197.938 224.119 197.401C223.816 196.864 223.664 196.257 223.664 195.581C223.664 194.888 223.825 194.277 224.145 193.748C224.466 193.211 224.904 192.79 225.458 192.487C226.022 192.184 226.663 192.032 227.382 192.032C227.816 192.032 228.219 192.088 228.591 192.201C228.964 192.314 229.289 192.465 229.566 192.656C229.844 192.838 230.065 193.046 230.229 193.28C230.394 193.505 230.481 193.735 230.489 193.969L230.138 193.943V192.175H231.49V199H230.138V197.232L230.424 197.245C230.407 197.462 230.307 197.683 230.125 197.908C229.952 198.125 229.718 198.328 229.423 198.519C229.137 198.701 228.808 198.848 228.435 198.961C228.071 199.074 227.686 199.13 227.278 199.13ZM227.603 197.895C228.115 197.895 228.565 197.795 228.955 197.596C229.345 197.388 229.649 197.111 229.865 196.764C230.082 196.409 230.19 196.014 230.19 195.581C230.19 195.139 230.082 194.745 229.865 194.398C229.649 194.051 229.345 193.778 228.955 193.579C228.565 193.38 228.115 193.28 227.603 193.28C227.101 193.28 226.654 193.38 226.264 193.579C225.883 193.778 225.58 194.051 225.354 194.398C225.138 194.745 225.029 195.139 225.029 195.581C225.029 196.014 225.138 196.409 225.354 196.764C225.58 197.111 225.883 197.388 226.264 197.596C226.654 197.795 227.101 197.895 227.603 197.895ZM237.822 199.13C237.12 199.13 236.479 199.03 235.898 198.831C235.326 198.632 234.85 198.311 234.468 197.869L235.378 197.063C235.682 197.375 236.033 197.613 236.431 197.778C236.839 197.934 237.289 198.012 237.783 198.012C237.974 198.012 238.169 197.999 238.368 197.973C238.568 197.947 238.75 197.899 238.914 197.83C239.088 197.761 239.222 197.67 239.317 197.557C239.421 197.444 239.473 197.31 239.473 197.154C239.473 196.894 239.3 196.695 238.953 196.556C238.78 196.495 238.572 196.435 238.329 196.374C238.087 196.305 237.809 196.24 237.497 196.179C236.977 196.066 236.522 195.945 236.132 195.815C235.742 195.685 235.426 195.516 235.183 195.308C235.001 195.143 234.863 194.957 234.767 194.749C234.672 194.532 234.624 194.285 234.624 194.008C234.624 193.705 234.702 193.436 234.858 193.202C235.014 192.959 235.227 192.751 235.495 192.578C235.773 192.396 236.093 192.262 236.457 192.175C236.821 192.08 237.216 192.032 237.64 192.032C238.013 192.032 238.39 192.071 238.771 192.149C239.161 192.227 239.53 192.348 239.876 192.513C240.223 192.678 240.513 192.881 240.747 193.124L240.019 194.008C239.811 193.843 239.573 193.696 239.304 193.566C239.036 193.427 238.758 193.323 238.472 193.254C238.195 193.176 237.931 193.137 237.679 193.137C237.471 193.137 237.268 193.15 237.068 193.176C236.869 193.202 236.683 193.25 236.509 193.319C236.345 193.38 236.21 193.466 236.106 193.579C236.011 193.683 235.963 193.809 235.963 193.956C235.972 194.06 236.002 194.16 236.054 194.255C236.115 194.342 236.197 194.42 236.301 194.489C236.457 194.593 236.674 194.688 236.951 194.775C237.237 194.853 237.562 194.927 237.926 194.996C238.386 195.083 238.806 195.187 239.187 195.308C239.569 195.429 239.885 195.581 240.136 195.763C240.353 195.91 240.513 196.088 240.617 196.296C240.73 196.495 240.786 196.729 240.786 196.998C240.786 197.44 240.652 197.821 240.383 198.142C240.123 198.463 239.768 198.71 239.317 198.883C238.867 199.048 238.368 199.13 237.822 199.13ZM252.327 199.13C251.512 199.13 250.789 198.983 250.156 198.688C249.523 198.385 249.029 197.973 248.674 197.453C248.319 196.924 248.141 196.326 248.141 195.659C248.141 195.104 248.245 194.606 248.453 194.164C248.661 193.713 248.951 193.332 249.324 193.02C249.697 192.699 250.13 192.452 250.624 192.279C251.118 192.106 251.647 192.019 252.21 192.019C252.721 192.019 253.202 192.101 253.653 192.266C254.104 192.431 254.498 192.66 254.836 192.955C255.174 193.25 255.434 193.601 255.616 194.008C255.798 194.407 255.885 194.849 255.876 195.334L255.863 195.984H249.272L248.973 194.918H254.706L254.511 195.061V194.749C254.476 194.454 254.346 194.194 254.121 193.969C253.896 193.744 253.614 193.57 253.276 193.449C252.947 193.319 252.591 193.254 252.21 193.254C251.673 193.254 251.196 193.336 250.78 193.501C250.364 193.657 250.039 193.908 249.805 194.255C249.58 194.593 249.467 195.031 249.467 195.568C249.467 196.036 249.593 196.448 249.844 196.803C250.104 197.15 250.464 197.418 250.923 197.609C251.391 197.8 251.924 197.895 252.522 197.895C253.068 197.895 253.532 197.821 253.913 197.674C254.303 197.518 254.65 197.327 254.953 197.102L255.577 198.09C255.343 198.281 255.048 198.454 254.693 198.61C254.346 198.766 253.965 198.892 253.549 198.987C253.142 199.082 252.734 199.13 252.327 199.13ZM259.182 199V192.175H260.521V193.865L260.144 193.956C260.291 193.635 260.508 193.332 260.794 193.046C261.08 192.751 261.422 192.509 261.821 192.318C262.22 192.127 262.653 192.032 263.121 192.032C263.754 192.032 264.278 192.153 264.694 192.396C265.119 192.63 265.435 192.964 265.643 193.397C265.86 193.83 265.968 194.337 265.968 194.918V199H264.629V195.074C264.629 194.693 264.547 194.368 264.382 194.099C264.226 193.822 264.005 193.614 263.719 193.475C263.442 193.328 263.117 193.258 262.744 193.267C262.423 193.267 262.124 193.323 261.847 193.436C261.578 193.549 261.344 193.696 261.145 193.878C260.946 194.06 260.79 194.264 260.677 194.489C260.573 194.706 260.521 194.927 260.521 195.152V199H259.858C259.685 199 259.542 199 259.429 199C259.316 199 259.234 199 259.182 199ZM279.145 199.13C278.46 199.13 277.823 199.022 277.234 198.805C276.645 198.58 276.129 198.259 275.687 197.843C275.245 197.427 274.903 196.933 274.66 196.361C274.417 195.78 274.296 195.143 274.296 194.45C274.296 193.791 274.426 193.18 274.686 192.617C274.946 192.054 275.301 191.564 275.752 191.148C276.203 190.723 276.723 190.398 277.312 190.173C277.901 189.939 278.53 189.822 279.197 189.822C279.717 189.822 280.22 189.896 280.705 190.043C281.199 190.182 281.641 190.368 282.031 190.602C282.43 190.836 282.75 191.092 282.993 191.369L282.109 192.461C281.823 192.201 281.524 191.98 281.212 191.798C280.9 191.607 280.571 191.464 280.224 191.369C279.877 191.265 279.509 191.213 279.119 191.213C278.677 191.213 278.252 191.291 277.845 191.447C277.438 191.603 277.074 191.824 276.753 192.11C276.441 192.387 276.19 192.725 275.999 193.124C275.817 193.523 275.726 193.965 275.726 194.45C275.726 194.97 275.817 195.434 275.999 195.841C276.19 196.248 276.45 196.595 276.779 196.881C277.117 197.158 277.498 197.371 277.923 197.518C278.356 197.665 278.816 197.739 279.301 197.739C279.726 197.739 280.111 197.687 280.458 197.583C280.805 197.47 281.121 197.327 281.407 197.154C281.693 196.972 281.953 196.786 282.187 196.595L282.876 197.752C282.651 197.969 282.343 198.185 281.953 198.402C281.572 198.61 281.138 198.783 280.653 198.922C280.176 199.061 279.674 199.13 279.145 199.13ZM289.345 199.13C288.557 199.13 287.855 198.978 287.239 198.675C286.633 198.372 286.152 197.951 285.796 197.414C285.45 196.877 285.276 196.266 285.276 195.581C285.276 194.888 285.45 194.277 285.796 193.748C286.152 193.211 286.633 192.79 287.239 192.487C287.855 192.184 288.557 192.032 289.345 192.032C290.134 192.032 290.832 192.184 291.438 192.487C292.045 192.79 292.522 193.211 292.868 193.748C293.224 194.277 293.401 194.888 293.401 195.581C293.401 196.266 293.224 196.877 292.868 197.414C292.522 197.951 292.045 198.372 291.438 198.675C290.832 198.978 290.134 199.13 289.345 199.13ZM289.345 197.908C289.857 197.908 290.316 197.808 290.723 197.609C291.139 197.41 291.464 197.137 291.698 196.79C291.941 196.435 292.054 196.032 292.036 195.581C292.054 195.122 291.941 194.719 291.698 194.372C291.464 194.025 291.139 193.752 290.723 193.553C290.316 193.354 289.857 193.254 289.345 193.254C288.834 193.254 288.37 193.354 287.954 193.553C287.547 193.752 287.222 194.03 286.979 194.385C286.745 194.732 286.633 195.13 286.641 195.581C286.633 196.032 286.745 196.435 286.979 196.79C287.222 197.137 287.547 197.41 287.954 197.609C288.37 197.808 288.834 197.908 289.345 197.908ZM299.026 199.13C298.324 199.13 297.683 199.03 297.102 198.831C296.53 198.632 296.054 198.311 295.672 197.869L296.582 197.063C296.886 197.375 297.237 197.613 297.635 197.778C298.043 197.934 298.493 198.012 298.987 198.012C299.178 198.012 299.373 197.999 299.572 197.973C299.772 197.947 299.954 197.899 300.118 197.83C300.292 197.761 300.426 197.67 300.521 197.557C300.625 197.444 300.677 197.31 300.677 197.154C300.677 196.894 300.504 196.695 300.157 196.556C299.984 196.495 299.776 196.435 299.533 196.374C299.291 196.305 299.013 196.24 298.701 196.179C298.181 196.066 297.726 195.945 297.336 195.815C296.946 195.685 296.63 195.516 296.387 195.308C296.205 195.143 296.067 194.957 295.971 194.749C295.876 194.532 295.828 194.285 295.828 194.008C295.828 193.705 295.906 193.436 296.062 193.202C296.218 192.959 296.431 192.751 296.699 192.578C296.977 192.396 297.297 192.262 297.661 192.175C298.025 192.08 298.42 192.032 298.844 192.032C299.217 192.032 299.594 192.071 299.975 192.149C300.365 192.227 300.734 192.348 301.08 192.513C301.427 192.678 301.717 192.881 301.951 193.124L301.223 194.008C301.015 193.843 300.777 193.696 300.508 193.566C300.24 193.427 299.962 193.323 299.676 193.254C299.399 193.176 299.135 193.137 298.883 193.137C298.675 193.137 298.472 193.15 298.272 193.176C298.073 193.202 297.887 193.25 297.713 193.319C297.549 193.38 297.414 193.466 297.31 193.579C297.215 193.683 297.167 193.809 297.167 193.956C297.176 194.06 297.206 194.16 297.258 194.255C297.319 194.342 297.401 194.42 297.505 194.489C297.661 194.593 297.878 194.688 298.155 194.775C298.441 194.853 298.766 194.927 299.13 194.996C299.59 195.083 300.01 195.187 300.391 195.308C300.773 195.429 301.089 195.581 301.34 195.763C301.557 195.91 301.717 196.088 301.821 196.296C301.934 196.495 301.99 196.729 301.99 196.998C301.99 197.44 301.856 197.821 301.587 198.142C301.327 198.463 300.972 198.71 300.521 198.883C300.071 199.048 299.572 199.13 299.026 199.13ZM306.036 199V190.212H307.375V199H306.036ZM304.177 193.475V192.175H309.546V193.475H304.177ZM315.396 199.13C314.694 199.13 314.07 198.978 313.524 198.675C312.978 198.363 312.549 197.938 312.237 197.401C311.934 196.864 311.782 196.257 311.782 195.581C311.782 194.888 311.943 194.277 312.263 193.748C312.584 193.211 313.022 192.79 313.576 192.487C314.14 192.184 314.781 192.032 315.5 192.032C315.934 192.032 316.337 192.088 316.709 192.201C317.082 192.314 317.407 192.465 317.684 192.656C317.962 192.838 318.183 193.046 318.347 193.28C318.512 193.505 318.599 193.735 318.607 193.969L318.256 193.943V192.175H319.608V199H318.256V197.232L318.542 197.245C318.525 197.462 318.425 197.683 318.243 197.908C318.07 198.125 317.836 198.328 317.541 198.519C317.255 198.701 316.926 198.848 316.553 198.961C316.189 199.074 315.804 199.13 315.396 199.13ZM315.721 197.895C316.233 197.895 316.683 197.795 317.073 197.596C317.463 197.388 317.767 197.111 317.983 196.764C318.2 196.409 318.308 196.014 318.308 195.581C318.308 195.139 318.2 194.745 317.983 194.398C317.767 194.051 317.463 193.778 317.073 193.579C316.683 193.38 316.233 193.28 315.721 193.28C315.219 193.28 314.772 193.38 314.382 193.579C314.001 193.778 313.698 194.051 313.472 194.398C313.256 194.745 313.147 195.139 313.147 195.581C313.147 196.014 313.256 196.409 313.472 196.764C313.698 197.111 314.001 197.388 314.382 197.596C314.772 197.795 315.219 197.895 315.721 197.895ZM328.495 199V189.9H333.175C333.704 189.9 334.189 190.026 334.631 190.277C335.073 190.528 335.429 190.871 335.697 191.304C335.966 191.729 336.1 192.21 336.1 192.747C336.1 193.267 335.957 193.748 335.671 194.19C335.394 194.623 335.021 194.97 334.553 195.23C334.094 195.49 333.587 195.62 333.032 195.62H329.899V199H328.495ZM334.826 199L332.07 194.892L333.539 194.567L336.555 199.013L334.826 199ZM329.899 194.268H333.019C333.314 194.268 333.583 194.199 333.825 194.06C334.068 193.921 334.263 193.735 334.41 193.501C334.558 193.267 334.631 193.011 334.631 192.734C334.631 192.448 334.549 192.197 334.384 191.98C334.228 191.755 334.016 191.577 333.747 191.447C333.479 191.317 333.18 191.252 332.85 191.252H329.899V194.268ZM340.053 199V192.175H341.392V199H340.053ZM340.703 190.589C340.417 190.589 340.196 190.515 340.04 190.368C339.884 190.221 339.806 190.013 339.806 189.744C339.806 189.493 339.884 189.289 340.04 189.133C340.205 188.977 340.426 188.899 340.703 188.899C340.989 188.899 341.21 188.973 341.366 189.12C341.522 189.267 341.6 189.475 341.6 189.744C341.6 189.995 341.518 190.199 341.353 190.355C341.197 190.511 340.981 190.589 340.703 190.589ZM348.462 199.13C347.734 199.13 347.08 198.974 346.499 198.662C345.927 198.35 345.472 197.925 345.134 197.388C344.796 196.851 344.627 196.248 344.627 195.581C344.627 194.905 344.796 194.303 345.134 193.774C345.472 193.237 345.927 192.812 346.499 192.5C347.08 192.188 347.734 192.032 348.462 192.032C349.173 192.032 349.827 192.153 350.425 192.396C351.032 192.63 351.5 192.959 351.829 193.384L351.088 194.398C350.897 194.181 350.655 193.986 350.36 193.813C350.074 193.64 349.771 193.501 349.45 193.397C349.138 193.293 348.826 193.241 348.514 193.241C348.02 193.241 347.582 193.345 347.201 193.553C346.82 193.752 346.521 194.03 346.304 194.385C346.087 194.732 345.979 195.13 345.979 195.581C345.979 196.032 346.092 196.435 346.317 196.79C346.551 197.137 346.859 197.414 347.24 197.622C347.63 197.821 348.059 197.921 348.527 197.921C348.891 197.921 349.225 197.878 349.528 197.791C349.84 197.696 350.126 197.574 350.386 197.427C350.646 197.271 350.884 197.106 351.101 196.933L351.829 197.921C351.439 198.25 350.954 198.536 350.373 198.779C349.792 199.013 349.155 199.13 348.462 199.13ZM357.621 199.13C356.919 199.13 356.295 198.978 355.749 198.675C355.203 198.363 354.774 197.938 354.462 197.401C354.159 196.864 354.007 196.257 354.007 195.581C354.007 194.888 354.167 194.277 354.488 193.748C354.809 193.211 355.246 192.79 355.801 192.487C356.364 192.184 357.006 192.032 357.725 192.032C358.158 192.032 358.561 192.088 358.934 192.201C359.307 192.314 359.632 192.465 359.909 192.656C360.186 192.838 360.407 193.046 360.572 193.28C360.737 193.505 360.823 193.735 360.832 193.969L360.481 193.943V192.175H361.833V199H360.481V197.232L360.767 197.245C360.75 197.462 360.65 197.683 360.468 197.908C360.295 198.125 360.061 198.328 359.766 198.519C359.48 198.701 359.151 198.848 358.778 198.961C358.414 199.074 358.028 199.13 357.621 199.13ZM357.946 197.895C358.457 197.895 358.908 197.795 359.298 197.596C359.688 197.388 359.991 197.111 360.208 196.764C360.425 196.409 360.533 196.014 360.533 195.581C360.533 195.139 360.425 194.745 360.208 194.398C359.991 194.051 359.688 193.778 359.298 193.579C358.908 193.38 358.457 193.28 357.946 193.28C357.443 193.28 356.997 193.38 356.607 193.579C356.226 193.778 355.922 194.051 355.697 194.398C355.48 194.745 355.372 195.139 355.372 195.581C355.372 196.014 355.48 196.409 355.697 196.764C355.922 197.111 356.226 197.388 356.607 197.596C356.997 197.795 357.443 197.895 357.946 197.895ZM366.358 199.143C365.968 199.143 365.678 199.056 365.487 198.883C365.296 198.71 365.201 198.471 365.201 198.168C365.201 197.908 365.296 197.683 365.487 197.492C365.686 197.293 365.977 197.193 366.358 197.193C366.739 197.193 367.025 197.28 367.216 197.453C367.407 197.626 367.502 197.865 367.502 198.168C367.502 198.428 367.402 198.658 367.203 198.857C367.012 199.048 366.731 199.143 366.358 199.143Z" fill="#3D1600"/>
<defs>
<linearGradient id="paint0_linear_29_4" x1="155" y1="146" x2="374" y2="146" gradientUnits="userSpaceOnUse">
<stop stop-color="#FF4500"/>
<stop offset="1" stop-color="#FF7E00"/>
</linearGradient>
<linearGradient id="paint1_linear_29_4" x1="19" y1="132" x2="155" y2="132" gradientUnits="userSpaceOnUse">
<stop stop-color="#FF4500"/>
<stop offset="1" stop-color="#FF7E00"/>
</linearGradient>
</defs>
</svg>
