<svg id="Layer_1" data-name="Layer 1" xmlns="http://www.w3.org/2000/svg" xmlns:xlink="http://www.w3.org/1999/xlink" viewBox="0 0 390 146.4"><defs><style>.cls-1{fill:#3d1600;}.cls-2{fill:url(#linear-gradient);}.cls-3{fill:url(#linear-gradient-2);}</style><linearGradient id="linear-gradient" x1="155" y1="7.04" x2="374" y2="7.04" gradientTransform="matrix(1, 0, 0, -1, 0, 68.8)" gradientUnits="userSpaceOnUse"><stop offset="0" stop-color="#ff4500"/><stop offset="1" stop-color="#ff7e00"/></linearGradient><linearGradient id="linear-gradient-2" x1="19" y1="4.78" x2="155" y2="4.78" xlink:href="#linear-gradient"/></defs><path class="cls-1" d="M31.34,13.6c.26,1.22.51,2.51.74,3.87s.47,2.72.64,4.13A33.69,33.69,0,0,1,33,25.7v2.49h-6.5V25.7a38.64,38.64,0,0,1,.22-4.1c.15-1.41.36-2.78.61-4.13s.54-2.65.83-3.87ZM29.71,5.09a3.66,3.66,0,0,1,2.53.77,2.56,2.56,0,0,1,.86,2.08,2.71,2.71,0,0,1-.89,2,3.45,3.45,0,0,1-2.5.84,3.77,3.77,0,0,1-2.56-.77,2.75,2.75,0,0,1-.83-2.11,2.7,2.7,0,0,1,.86-2A3.46,3.46,0,0,1,29.71,5.09ZM53.18,22.72a15.22,15.22,0,0,1-5.09-.83A12.66,12.66,0,0,1,44,19.52a10.89,10.89,0,0,1-2.72-3.68,11.47,11.47,0,0,1-1-4.74,10.82,10.82,0,0,1,1-4.64,12.11,12.11,0,0,1,2.75-3.68,12.42,12.42,0,0,1,4.1-2.4,15.29,15.29,0,0,1,5.08-.83A15,15,0,0,1,56.92,0a14.11,14.11,0,0,1,3.3,1.25,10.93,10.93,0,0,1,2.59,1.82l-3.2,4.1a9.94,9.94,0,0,0-1.79-1.31,7.5,7.5,0,0,0-2.14-.93A9.16,9.16,0,0,0,53,4.58,8.24,8.24,0,0,0,50.36,5,7.82,7.82,0,0,0,48.09,6.3a6.39,6.39,0,0,0-1.6,2.08,6.5,6.5,0,0,0-.57,2.79,6.33,6.33,0,0,0,.6,2.78A6.25,6.25,0,0,0,48.19,16a8,8,0,0,0,2.46,1.28,10.37,10.37,0,0,0,3,.42,8.6,8.6,0,0,0,2.69-.39,9.84,9.84,0,0,0,2.14-1c.64-.43,1.21-.83,1.7-1.22l2.59,4.2a12,12,0,0,1-2.4,1.63A16.86,16.86,0,0,1,57,22.21,14.24,14.24,0,0,1,53.18,22.72Zm16.26-.32V0H87.56V4.64H74.72V17.76H87.88V22.4Zm2.76-9.18V8.8H86.12v4.42ZM95.63,22.4V0h5.44V17.6h12.48v4.8Zm24.69,0V0h18.11V4.64H125.6V17.76h13.15V22.4Zm2.75-9.18V8.8H137v4.42Zm23.44,9.18V0H158a13.27,13.27,0,0,1,4.51.67,6,6,0,0,1,2.78,1.89,4.69,4.69,0,0,1,.93,2.94,4.9,4.9,0,0,1-1.06,3.2,5.36,5.36,0,0,1-3.1,1.83l.06-.61A8.33,8.33,0,0,1,164.78,11a5.52,5.52,0,0,1,1.92,1.92,5.08,5.08,0,0,1,.7,2.72,6.5,6.5,0,0,1-.73,3.2,5.91,5.91,0,0,1-2,2.08,9.94,9.94,0,0,1-2.81,1.15,15.1,15.1,0,0,1-3.24.35Zm5.12-4.54h7a5.74,5.74,0,0,0,1.8-.26,2.82,2.82,0,0,0,1.21-.83,2.24,2.24,0,0,0,.45-1.41,1.82,1.82,0,0,0-.54-1.38,3.1,3.1,0,0,0-1.38-.76,5.74,5.74,0,0,0-1.7-.26h-6.81Zm0-9h6.08a4.86,4.86,0,0,0,1.66-.26,2.57,2.57,0,0,0,1.12-.77,1.85,1.85,0,0,0,.39-1.21A1.67,1.67,0,0,0,160,5.09a4.8,4.8,0,0,0-2.43-.55h-5.89Zm22.94,13.5V0h11.68a9.61,9.61,0,0,1,4.29.9,6.62,6.62,0,0,1,2.81,2.52,6.76,6.76,0,0,1,1,3.75A7.1,7.1,0,0,1,193.29,11a7.25,7.25,0,0,1-2.91,2.65,8.67,8.67,0,0,1-4.1,1h-6.53V22.4Zm14.69,0-6.79-10.11,5.64-.8,7.42,10.91Zm-9.51-11.94h6a3.33,3.33,0,0,0,1.63-.38A2.94,2.94,0,0,0,188.49,9a2.9,2.9,0,0,0,.45-1.6,2.47,2.47,0,0,0-.48-1.53,2.91,2.91,0,0,0-1.22-1,4.17,4.17,0,0,0-1.79-.36h-5.7ZM199.56,22.4,209.67,0h4.9l10.08,22.4h-5.57L213.51,10c-.21-.45-.41-.89-.61-1.34s-.34-.93-.51-1.38-.33-.93-.48-1.37-.29-.92-.42-1.35l1.13,0q-.23.73-.45,1.41c-.15.45-.32.9-.52,1.37s-.35.9-.54,1.35-.38.9-.57,1.37L205,22.4Zm4.73-4.1L206,14.21h12.07l1.15,4.09Zm25.87,4.1V0H235l9.31,12.93-3.26,0L250.42,0h4.8V22.4h-5.28V15.23c0-1.83,0-3.52.13-5.05a42.35,42.35,0,0,1,.51-4.71l.54,1.76L243.7,17h-2.11L234.2,7.2l.6-1.73a42.5,42.5,0,0,1,.52,4.61c.08,1.54.12,3.25.12,5.15V22.4Zm45.24.32a15.64,15.64,0,0,1-5.28-.86A13.27,13.27,0,0,1,266,19.39a11,11,0,0,1-3.64-8.29,11,11,0,0,1,1-4.6A10.79,10.79,0,0,1,266,2.82,12.68,12.68,0,0,1,270.15.38a14.82,14.82,0,0,1,5.22-.89,15.38,15.38,0,0,1,5.25.86,12,12,0,0,1,4.13,2.47,10.43,10.43,0,0,1,2.68,3.68,10.8,10.8,0,0,1,1,4.6,10.85,10.85,0,0,1-1,4.61,10.72,10.72,0,0,1-2.68,3.71,12.22,12.22,0,0,1-4.13,2.44A15.28,15.28,0,0,1,275.4,22.72Zm0-5.12a9.09,9.09,0,0,0,3-.48,7.47,7.47,0,0,0,2.37-1.38,6.41,6.41,0,0,0,1.54-2.08,6.08,6.08,0,0,0-1.54-7.16,6.75,6.75,0,0,0-2.4-1.38,8.52,8.52,0,0,0-3-.51,8.65,8.65,0,0,0-3,.51A7.79,7.79,0,0,0,270,6.46a5.79,5.79,0,0,0-1.56,2.08,6.43,6.43,0,0,0-.51,2.56,6.66,6.66,0,0,0,.51,2.6,5.74,5.74,0,0,0,1.56,2,8.1,8.1,0,0,0,2.4,1.38A9.13,9.13,0,0,0,275.4,17.6Zm29.1,5.12a19.23,19.23,0,0,1-4.58-.51,15.3,15.3,0,0,1-3.68-1.41,14,14,0,0,1-2.94-2.14l2.85-4.1a13.11,13.11,0,0,0,4.32,2.82,13.2,13.2,0,0,0,4.35.76,8.13,8.13,0,0,0,1.92-.22,4,4,0,0,0,1.57-.7,1.54,1.54,0,0,0,.64-1.28,1.26,1.26,0,0,0-.32-.87,2.66,2.66,0,0,0-.87-.64,5.18,5.18,0,0,0-1.28-.45c-.47-.1-1-.2-1.53-.28l-1.73-.26a20.85,20.85,0,0,1-3.68-.83,11.24,11.24,0,0,1-2.75-1.41,5.8,5.8,0,0,1-1.7-2,5.87,5.87,0,0,1-.58-2.65,5.77,5.77,0,0,1,.77-2.95,6.54,6.54,0,0,1,2.15-2.2A10.39,10.39,0,0,1,300.56,0a14.85,14.85,0,0,1,3.84-.48,16.55,16.55,0,0,1,4.07.45,11.37,11.37,0,0,1,3.13,1.24A9.56,9.56,0,0,1,313.84,3L310.9,6.53A8.45,8.45,0,0,0,309,5.22a10.22,10.22,0,0,0-2.24-.84,10.1,10.1,0,0,0-2.37-.28,8.33,8.33,0,0,0-2.18.25,3.79,3.79,0,0,0-1.47.67,1.45,1.45,0,0,0-.54,1.16,1.31,1.31,0,0,0,.45,1,4,4,0,0,0,1.21.7,11.37,11.37,0,0,0,1.63.42l1.83.29a28.1,28.1,0,0,1,3.52.7,11.42,11.42,0,0,1,3,1.15,5.27,5.27,0,0,1,2,1.92,5.46,5.46,0,0,1,.74,3,6.23,6.23,0,0,1-1.32,4,8.17,8.17,0,0,1-3.55,2.53A14.46,14.46,0,0,1,304.5,22.72Z"/><path class="cls-2" d="M151,90.4,179.9,45.6h10.3l11,44.8H190.84l-8.7-39.68h4.09L162,90.4Zm12-9.6,4.22-7.87h23.1l1.22,7.87Zm42.92,9.6,9-44.8h8.57l19.27,32.45-3.4-.19,6.4-32.26H255.9l-9,44.8h-8.51L219.1,58l3.46.19L216.1,90.4ZM241.5,42.14a7.17,7.17,0,0,1-2.94-.57,17.07,17.07,0,0,1-2.24-1.41,17.56,17.56,0,0,0-1.86-1.41,3.25,3.25,0,0,0-1.92-.64,2.85,2.85,0,0,0-2.17,1,5.24,5.24,0,0,0-1.22,2.63H224.1A12.69,12.69,0,0,1,227,34.78a7.26,7.26,0,0,1,5.57-2.43,6.18,6.18,0,0,1,2.88.64,9.48,9.48,0,0,1,2.24,1.41c.68.56,1.32,1,1.92,1.47a3.31,3.31,0,0,0,1.85.58,2.92,2.92,0,0,0,2.24-1A5,5,0,0,0,244.9,33h5A12.87,12.87,0,0,1,247,39.78,7.15,7.15,0,0,1,241.5,42.14Zm39.28,49a26.25,26.25,0,0,1-11.72-2.43,18.27,18.27,0,0,1-7.48-6.85A19.57,19.57,0,0,1,259,71.71a27.7,27.7,0,0,1,2-10.62,24.66,24.66,0,0,1,5.63-8.51,26.43,26.43,0,0,1,8.77-5.7,30.09,30.09,0,0,1,11.32-2.05,25.14,25.14,0,0,1,11.65,2.5,17.52,17.52,0,0,1,7.55,6.85,19.19,19.19,0,0,1,2.63,10.11,28.24,28.24,0,0,1-2,10.69,25.1,25.1,0,0,1-5.69,8.51A26.34,26.34,0,0,1,292,89.12,29.67,29.67,0,0,1,280.78,91.17Zm.89-8.83A16.43,16.43,0,0,0,288.46,81a15.21,15.21,0,0,0,5.18-3.84,16.85,16.85,0,0,0,3.2-5.57A19.61,19.61,0,0,0,298,64.86,11.61,11.61,0,0,0,296.58,59a9.57,9.57,0,0,0-4.16-4,14.19,14.19,0,0,0-6.65-1.41A15.83,15.83,0,0,0,279,55.07a15.3,15.3,0,0,0-5.18,3.78,17.4,17.4,0,0,0-3.26,5.63,20.05,20.05,0,0,0-1.09,6.66A12,12,0,0,0,270.86,77,10.14,10.14,0,0,0,275,80.93,14.42,14.42,0,0,0,281.67,82.34Zm45.49,8.83a35.4,35.4,0,0,1-7.1-.71,31.39,31.39,0,0,1-6.21-1.79,25.69,25.69,0,0,1-4.68-2.49l4.23-8a29.5,29.5,0,0,0,4.48,2.56,29.8,29.8,0,0,0,5.06,1.6,27.29,27.29,0,0,0,5.24.51,16.53,16.53,0,0,0,4.93-.64,7.23,7.23,0,0,0,3.2-1.79,3.83,3.83,0,0,0,1.15-2.82,3,3,0,0,0-1.21-2.5,10.28,10.28,0,0,0-3.2-1.6c-1.28-.47-2.71-.91-4.29-1.34s-3.18-.92-4.8-1.47a23.27,23.27,0,0,1-4.35-2.18,10.73,10.73,0,0,1-3.14-3.39A9.9,9.9,0,0,1,315.26,60a13.15,13.15,0,0,1,2.49-8,16.46,16.46,0,0,1,7.17-5.25,28,28,0,0,1,10.82-1.92,34.34,34.34,0,0,1,8.57,1,22.27,22.27,0,0,1,6.91,2.81l-3.9,7.94a18.64,18.64,0,0,0-5.7-2.56,23.28,23.28,0,0,0-6.46-.9,16.84,16.84,0,0,0-5.18.71,7.51,7.51,0,0,0-3.27,2,4.12,4.12,0,0,0-1.09,2.82,3.35,3.35,0,0,0,1.16,2.62,11.1,11.1,0,0,0,3.2,1.66c1.32.43,2.77.86,4.35,1.28s3.15.92,4.73,1.48a20.23,20.23,0,0,1,4.36,2.11,10.27,10.27,0,0,1,3.2,3.26,9,9,0,0,1,1.21,4.87A13.14,13.14,0,0,1,345.27,84,16.78,16.78,0,0,1,338,89.31,29,29,0,0,1,327.16,91.17Zm28.27-16.32,3.9-29.25h11.91l-7.88,29.25Zm1.66,16.06a6,6,0,0,1-4.22-1.53,5.15,5.15,0,0,1-1.67-3.84,5.75,5.75,0,0,1,1.86-4.42,6.67,6.67,0,0,1,4.61-1.73,5.73,5.73,0,0,1,4.16,1.54,4.74,4.74,0,0,1,1.66,3.71,6.34,6.34,0,0,1-6.4,6.27Z"/><path class="cls-3" d="M43.48,95.36q-9.4,0-15.17-2.88-6.24-3.08-6.24-8.64A13.34,13.34,0,0,1,23.9,77.5q2.4-4.32,9.5-7.39a28.26,28.26,0,0,1,10.46-2.49c.77,0,1.16.25,1.16.76s-.45,1-1.35,1q-3.08,0-7.87,2.88-5.37,3.36-6.34,6.72l-.38,1.73a13.27,13.27,0,0,0-.1,1.54q0,8.36,11.43,10.37,11.13,2,23.13-3.46,13.44-6.24,18.15-18a8.5,8.5,0,0,0,.67-3.27c0-2.56-1.44-4.44-4.32-5.66a23.06,23.06,0,0,0-9.22-1.63,26.39,26.39,0,0,0-9.4,1.44,4.58,4.58,0,0,1-1.83.38c-1.15,0-1.73-.54-1.73-1.63a2.85,2.85,0,0,1,.77-1.92,2.46,2.46,0,0,1,2-1A42.59,42.59,0,0,0,74.1,55.14q9.23-3.66,10.37-10.28a2.53,2.53,0,0,0,.1-.67v-.57c0-2.76-1.83-4.13-5.47-4.13a34.52,34.52,0,0,0-11.72,2.59,57.43,57.43,0,0,0-10.65,5.18,1.15,1.15,0,0,1-.67.29c-.45,0-.68-.41-.68-1.25,0-1.92.61-3,1.83-3.26q2.2-.67,7-5.18.57-.59,1-.39a.68.68,0,0,1,.48.67,1.68,1.68,0,0,1-.57,1.16,3.76,3.76,0,0,0-.77.76q10.28-4.41,17.18-4.41,9.41,0,9,8.73-.48,8.35-17.19,13.54,14.5,1.53,14.5,10.18a8.9,8.9,0,0,1-.39,2.68q-2.88,11.34-17,18.44A60.12,60.12,0,0,1,43.48,95.36Zm59.21-.1A22.43,22.43,0,0,1,99,95q-8-1.07-8-11.33,0-10.08,7.49-22.27a61.15,61.15,0,0,1,13.25-15,70.36,70.36,0,0,1,16.7-10.94,1.15,1.15,0,0,1-.38-.77c0-.45.51-.77,1.54-1a15.28,15.28,0,0,1,3.93-.1,23.27,23.27,0,0,1,7.39-1q7.2,0,7.2,2.69c-.12.9-.76,1.09-1.92.58a15.6,15.6,0,0,0-5.85-1.06,14.11,14.11,0,0,1,5.47,3.36,17.08,17.08,0,0,1,5.38,13A31.91,31.91,0,0,1,147,66.37a49.1,49.1,0,0,1-11.24,14.11Q119.1,95.27,102.69,95.26Zm-2.5-2.4q13.64,1.15,31-14.11,15-13.15,15-28.61,0-7.29-3.07-9.79a21.13,21.13,0,0,0-8.84-4.41q-8.93,2.78-18.81,12.19a84.78,84.78,0,0,0-12.1,14.49q-7.87,12.2-7.87,22.56Q95.49,92.48,100.19,92.86Z"/><path class="cls-1" d="M25.92,120.53A5.44,5.44,0,0,1,24,120.2a4.45,4.45,0,0,1-1.54-1,4.16,4.16,0,0,1-1-1.48,5,5,0,0,1-.36-1.91,4.29,4.29,0,0,1,.39-1.83,4.47,4.47,0,0,1,1.06-1.47,4.69,4.69,0,0,1,1.56-1,5.16,5.16,0,0,1,1.89-.35,5.34,5.34,0,0,1,1.5.22,5.54,5.54,0,0,1,1.33.56,3.86,3.86,0,0,1,1,.77l-.88,1.09a5.45,5.45,0,0,0-.9-.66,3.63,3.63,0,0,0-1-.43,3.9,3.9,0,0,0-1.1-.16,3.5,3.5,0,0,0-1.28.24,3.39,3.39,0,0,0-1.09.66,3.29,3.29,0,0,0-.75,1,3.19,3.19,0,0,0-.27,1.33,3.41,3.41,0,0,0,.27,1.39,3,3,0,0,0,.78,1,3.76,3.76,0,0,0,1.14.64,4.48,4.48,0,0,0,1.38.22,3.87,3.87,0,0,0,1.16-.16,4.31,4.31,0,0,0,1-.43c.28-.18.54-.36.78-.55l.69,1.15a4.66,4.66,0,0,1-.93.65,6.18,6.18,0,0,1-1.3.52A5.3,5.3,0,0,1,25.92,120.53Zm7-.13v-6.82h1.35v2.34l-.27-.28a3,3,0,0,1,.58-1.1,3.56,3.56,0,0,1,1-.81,2.42,2.42,0,0,1,1.16-.3,3.27,3.27,0,0,1,.7.08,2.08,2.08,0,0,1,.54.19l-.35,1.42a1.68,1.68,0,0,0-.56-.19,2.46,2.46,0,0,0-.59-.08,2.35,2.35,0,0,0-.89.17,2.29,2.29,0,0,0-.69.45,2.32,2.32,0,0,0-.45.64,1.7,1.7,0,0,0-.16.74v3.55Zm11,.13a5.16,5.16,0,0,1-2.17-.44,3.78,3.78,0,0,1-1.48-1.24,3.09,3.09,0,0,1-.53-1.79,3.47,3.47,0,0,1,.31-1.5,3.27,3.27,0,0,1,.87-1.14,4,4,0,0,1,1.3-.74,4.82,4.82,0,0,1,1.59-.26,4,4,0,0,1,1.44.25,3.56,3.56,0,0,1,1.18.69,2.89,2.89,0,0,1,.78,1,3,3,0,0,1,.26,1.32v.65H40.83l-.3-1.06h5.73l-.19.14v-.31a1.33,1.33,0,0,0-.39-.78,2.22,2.22,0,0,0-.85-.52,2.86,2.86,0,0,0-1.06-.2,3.93,3.93,0,0,0-1.43.25,2,2,0,0,0-1,.76A2.33,2.33,0,0,0,41,117a2.06,2.06,0,0,0,.38,1.23,2.49,2.49,0,0,0,1.08.81,4.23,4.23,0,0,0,1.6.29,3.81,3.81,0,0,0,1.39-.23,4.15,4.15,0,0,0,1-.57l.62,1a4,4,0,0,1-.88.52,6.2,6.2,0,0,1-1.15.38A5.57,5.57,0,0,1,43.88,120.53Zm9.55,0a3.8,3.8,0,0,1-1.87-.45,3.45,3.45,0,0,1-1.29-1.28,3.67,3.67,0,0,1-.46-1.82,3.39,3.39,0,0,1,.49-1.83,3.31,3.31,0,0,1,1.31-1.26,3.9,3.9,0,0,1,1.92-.46,4.21,4.21,0,0,1,1.21.17,3.28,3.28,0,0,1,1,.46,2.46,2.46,0,0,1,.66.62,1.31,1.31,0,0,1,.26.69l-.35,0v-1.76h1.35v6.82H56.29v-1.77h.28a1.19,1.19,0,0,1-.29.67,2.9,2.9,0,0,1-.71.61,3.83,3.83,0,0,1-1,.44A4,4,0,0,1,53.43,120.53Zm.32-1.23a3.09,3.09,0,0,0,1.36-.3,2.38,2.38,0,0,0,.91-.84,2.27,2.27,0,0,0,.32-1.18A2.22,2.22,0,0,0,56,115.8a2.26,2.26,0,0,0-.91-.82,3,3,0,0,0-1.36-.3,2.91,2.91,0,0,0-1.34.3,2.4,2.4,0,0,0-.91.82,2.22,2.22,0,0,0-.32,1.18,2.27,2.27,0,0,0,.32,1.18,2.54,2.54,0,0,0,.91.84A3,3,0,0,0,53.75,119.3Zm7.78,1.1v-6.82h1.34v1.69l-.38.09a2.94,2.94,0,0,1,.65-.91,3.49,3.49,0,0,1,1-.73,3,3,0,0,1,1.3-.29,3,3,0,0,1,1.57.37,2.14,2.14,0,0,1,.95,1,3.31,3.31,0,0,1,.32,1.52v4.08H67v-3.93a1.86,1.86,0,0,0-.25-1,1.46,1.46,0,0,0-.66-.62,1.94,1.94,0,0,0-1-.21,2.25,2.25,0,0,0-.9.17,2.38,2.38,0,0,0-.7.44,2.12,2.12,0,0,0-.47.61,1.58,1.58,0,0,0-.15.66v3.85H61.53Zm13.58.13a4.12,4.12,0,0,1-2-.45,3.45,3.45,0,0,1-1.3-1.27,3.65,3.65,0,0,1-.45-1.83,3.47,3.47,0,0,1,.48-1.83,3.3,3.3,0,0,1,1.33-1.26,3.9,3.9,0,0,1,1.92-.46,4.39,4.39,0,0,1,1.22.17,3.29,3.29,0,0,1,1,.46,2.41,2.41,0,0,1,.68.61,1.08,1.08,0,0,1,.25.65l-.39,0v-4.56h1.34v9.62H77.9v-1.77l.26.05a1.06,1.06,0,0,1-.26.64,2.91,2.91,0,0,1-.68.6,3.76,3.76,0,0,1-1,.44A4,4,0,0,1,75.11,120.53Zm.25-1.2a2.8,2.8,0,0,0,1.35-.31,2.31,2.31,0,0,0,.91-.84,2.35,2.35,0,0,0,0-2.4,2.22,2.22,0,0,0-.91-.83A3.07,3.07,0,0,0,74,115a2.31,2.31,0,0,0-.92.83,2.35,2.35,0,0,0,0,2.4A2.41,2.41,0,0,0,74,119,2.79,2.79,0,0,0,75.36,119.33Zm10.84,1.2a4.74,4.74,0,0,1-2.11-.45,3.63,3.63,0,0,1-1.44-1.27,3.48,3.48,0,0,1,0-3.66,3.53,3.53,0,0,1,1.44-1.26,4.61,4.61,0,0,1,2.11-.46,4.56,4.56,0,0,1,2.09.46,3.57,3.57,0,0,1,1.43,1.26,3.42,3.42,0,0,1,0,3.66,3.67,3.67,0,0,1-1.43,1.27A4.69,4.69,0,0,1,86.2,120.53Zm0-1.22a3,3,0,0,0,1.37-.3,2.4,2.4,0,0,0,1-.82,2,2,0,0,0,.34-1.21,2,2,0,0,0-.34-1.21,2.4,2.4,0,0,0-1-.82,3,3,0,0,0-1.37-.3,3.19,3.19,0,0,0-1.4.3,2.53,2.53,0,0,0-1,.83,2.06,2.06,0,0,0-.34,1.2,2.11,2.11,0,0,0,.34,1.21,2.51,2.51,0,0,0,1,.82A3.19,3.19,0,0,0,86.2,119.31Zm12.2,1.09v-6.82h1.36v1.74h-.39a2.19,2.19,0,0,1,.36-.64,3.14,3.14,0,0,1,.69-.59,3.31,3.31,0,0,1,.92-.46,3.42,3.42,0,0,1,1.12-.18,3.09,3.09,0,0,1,1.2.22,1.84,1.84,0,0,1,.85.65,2.22,2.22,0,0,1,.43,1.1l-.35-.07.09-.22a2.46,2.46,0,0,1,.45-.56,3.28,3.28,0,0,1,.7-.55,3.82,3.82,0,0,1,.87-.4,2.8,2.8,0,0,1,1-.17,2.94,2.94,0,0,1,1.55.36,2,2,0,0,1,.84,1,4.15,4.15,0,0,1,.26,1.53v4H109v-3.87a2.57,2.57,0,0,0-.17-1,1.29,1.29,0,0,0-.53-.64,1.78,1.78,0,0,0-.91-.22,2.6,2.6,0,0,0-.93.17,2.55,2.55,0,0,0-.75.44,1.77,1.77,0,0,0-.67,1.46v3.64h-1.36v-3.9a2.18,2.18,0,0,0-.19-1,1.31,1.31,0,0,0-.59-.64,2.09,2.09,0,0,0-1-.22,2.24,2.24,0,0,0-1.54.61,2,2,0,0,0-.45.62,1.58,1.58,0,0,0-.15.66v3.82Zm18.49.13a3.83,3.83,0,0,1-1.87-.45,3.52,3.52,0,0,1-1.29-1.28,3.67,3.67,0,0,1-.45-1.82,3.47,3.47,0,0,1,.48-1.83,3.38,3.38,0,0,1,1.31-1.26,4,4,0,0,1,1.93-.46,4.31,4.31,0,0,1,1.21.17,3.22,3.22,0,0,1,1,.46,2.32,2.32,0,0,1,.66.62,1.17,1.17,0,0,1,.26.69l-.35,0v-1.76h1.36v6.82h-1.36v-1.77H120a1.29,1.29,0,0,1-.3.67,2.84,2.84,0,0,1-.7.61,4.07,4.07,0,0,1-1,.44A4,4,0,0,1,116.89,120.53Zm.33-1.23a3,3,0,0,0,1.35-.3,2.38,2.38,0,0,0,.91-.84,2.19,2.19,0,0,0,.33-1.18,2.14,2.14,0,0,0-.33-1.18,2.26,2.26,0,0,0-.91-.82,2.92,2.92,0,0,0-1.35-.3,2.88,2.88,0,0,0-1.34.3,2.33,2.33,0,0,0-.91.82,2.14,2.14,0,0,0-.33,1.18,2.19,2.19,0,0,0,.33,1.18,2.46,2.46,0,0,0,.91.84A3,3,0,0,0,117.22,119.3Zm11.15,4.09a5.8,5.8,0,0,1-1.78-.25,4.11,4.11,0,0,1-1.26-.57l.48-1.08a4.1,4.1,0,0,0,.66.31,4.53,4.53,0,0,0,.88.28,4.2,4.2,0,0,0,1,.11,2.73,2.73,0,0,0,1.26-.27,2,2,0,0,0,.84-.79,2.63,2.63,0,0,0,.29-1.28v-1l.15.09a1.37,1.37,0,0,1-.52.75,3.86,3.86,0,0,1-1.12.63,4.4,4.4,0,0,1-1.42.23,4,4,0,0,1-1.92-.45,3.4,3.4,0,0,1-1.31-1.27,3.46,3.46,0,0,1-.47-1.83,3.39,3.39,0,0,1,1.84-3.09,4.09,4.09,0,0,1,2-.46,3.46,3.46,0,0,1,.74.09,4.84,4.84,0,0,1,.82.25,5.08,5.08,0,0,1,.74.36,2.19,2.19,0,0,1,.56.46.82.82,0,0,1,.23.48l-.29.1v-1.59h1.34v6.12a4.16,4.16,0,0,1-.28,1.6,2.92,2.92,0,0,1-.81,1.15,3.34,3.34,0,0,1-1.19.71A4.59,4.59,0,0,1,128.37,123.39Zm-.15-4.09a3,3,0,0,0,1.35-.3,2.3,2.3,0,0,0,.92-.82,2.26,2.26,0,0,0,.33-1.2,2.21,2.21,0,0,0-.33-1.2,2.28,2.28,0,0,0-.92-.81,2.81,2.81,0,0,0-1.35-.32,3,3,0,0,0-1.39.32,2.38,2.38,0,0,0-1,.83,2.07,2.07,0,0,0-.35,1.18,2.12,2.12,0,0,0,.35,1.18,2.57,2.57,0,0,0,1,.84A3.23,3.23,0,0,0,128.22,119.3Zm7.86,1.1v-6.82h1.34v6.82Zm.65-8.41a.89.89,0,0,1-.66-.22.92.92,0,0,1,0-1.24.93.93,0,0,1,.66-.23.91.91,0,0,1,.66.22.92.92,0,0,1,0,1.23A.87.87,0,0,1,136.73,112Zm7.46,8.54a3.8,3.8,0,0,1-1.87-.45A3.45,3.45,0,0,1,141,118.8a3.67,3.67,0,0,1-.46-1.82,3.47,3.47,0,0,1,.48-1.83,3.4,3.4,0,0,1,1.32-1.26,3.9,3.9,0,0,1,1.92-.46,4.21,4.21,0,0,1,1.21.17,3.28,3.28,0,0,1,1,.46,2.62,2.62,0,0,1,.66.62,1.31,1.31,0,0,1,.26.69l-.35,0v-1.76h1.35v6.82h-1.35v-1.77h.28a1.14,1.14,0,0,1-.3.67,2.67,2.67,0,0,1-.7.61,3.75,3.75,0,0,1-1,.44A3.9,3.9,0,0,1,144.19,120.53Zm.32-1.23a3,3,0,0,0,1.35-.3,2.31,2.31,0,0,0,.91-.84,2.19,2.19,0,0,0,.33-1.18,2.14,2.14,0,0,0-.33-1.18,2.2,2.2,0,0,0-.91-.82,3.17,3.17,0,0,0-2.69,0,2.4,2.4,0,0,0-.91.82,2.22,2.22,0,0,0-.32,1.18,2.27,2.27,0,0,0,.32,1.18,2.54,2.54,0,0,0,.91.84A3,3,0,0,0,144.51,119.3Zm14,4.09,1.64-3.17v1l-3.93-7.67h1.56l2.07,4.3c.2.36.37.71.52,1a4.69,4.69,0,0,1,.31.88l-.24,0q.15-.39.36-.9c.15-.33.32-.71.51-1.11l1.87-4.25h1.57l-3.39,6.86-1.42,3Zm16.66-2.86a5.86,5.86,0,0,1-1.92-.3,3.3,3.3,0,0,1-1.43-1l.91-.81a3,3,0,0,0,1,.72,3.92,3.92,0,0,0,1.36.23,3.86,3.86,0,0,0,.58,0,1.93,1.93,0,0,0,.55-.14,1.08,1.08,0,0,0,.4-.27.62.62,0,0,0,.16-.41c0-.26-.18-.45-.52-.59a5.35,5.35,0,0,0-.63-.19c-.24-.07-.52-.13-.83-.19a12.73,12.73,0,0,1-1.37-.36,3,3,0,0,1-1-.51,1.69,1.69,0,0,1-.41-.56,1.75,1.75,0,0,1-.14-.74,1.42,1.42,0,0,1,.23-.81,2.11,2.11,0,0,1,.64-.62,2.86,2.86,0,0,1,1-.4,4.43,4.43,0,0,1,1.18-.15,5.5,5.5,0,0,1,1.13.12,5.15,5.15,0,0,1,1.11.36,3.14,3.14,0,0,1,.87.61l-.73.89a3.86,3.86,0,0,0-.71-.44,3.73,3.73,0,0,0-.84-.32,3.2,3.2,0,0,0-.79-.11,4.08,4.08,0,0,0-.61,0,2,2,0,0,0-.56.14,1,1,0,0,0-.4.26.52.52,0,0,0-.15.38.71.71,0,0,0,.1.3,1.06,1.06,0,0,0,.24.23,2.68,2.68,0,0,0,.65.28c.29.08.61.16,1,.23a9.68,9.68,0,0,1,1.26.31,3.36,3.36,0,0,1,.95.45,1.45,1.45,0,0,1,.48.54,1.39,1.39,0,0,1,.17.7,1.72,1.72,0,0,1-.41,1.14,2.39,2.39,0,0,1-1.06.74A4.22,4.22,0,0,1,175.18,120.53Zm9.33,0a4.77,4.77,0,0,1-2.11-.45,3.63,3.63,0,0,1-1.44-1.27,3.48,3.48,0,0,1,0-3.66,3.53,3.53,0,0,1,1.44-1.26,4.64,4.64,0,0,1,2.11-.46,4.53,4.53,0,0,1,2.09.46,3.51,3.51,0,0,1,1.43,1.26,3.42,3.42,0,0,1,0,3.66,3.6,3.6,0,0,1-1.43,1.27A4.66,4.66,0,0,1,184.51,120.53Zm0-1.22a3.11,3.11,0,0,0,1.38-.3,2.37,2.37,0,0,0,1-.82,2,2,0,0,0,.34-1.21,1.93,1.93,0,0,0-.34-1.21,2.37,2.37,0,0,0-1-.82,3.11,3.11,0,0,0-1.38-.3,3.15,3.15,0,0,0-1.39.3,2.49,2.49,0,0,0-1,.83,2.06,2.06,0,0,0-.34,1.2,2.11,2.11,0,0,0,.34,1.21,2.47,2.47,0,0,0,1,.82A3.15,3.15,0,0,0,184.51,119.31Zm7.23,1.09v-6.82h1.34v1.69l-.37.09a2.78,2.78,0,0,1,.65-.91,3.45,3.45,0,0,1,1-.73,3,3,0,0,1,1.3-.29,3,3,0,0,1,1.58.37,2.19,2.19,0,0,1,1,1,3.44,3.44,0,0,1,.32,1.52v4.08h-1.34v-3.93a1.77,1.77,0,0,0-.25-1,1.37,1.37,0,0,0-.66-.62,1.9,1.9,0,0,0-1-.21,2.25,2.25,0,0,0-.9.17,2.38,2.38,0,0,0-.7.44,2,2,0,0,0-.47.61,1.46,1.46,0,0,0-.16.66v3.85h-1.34Zm10.8,0v-6.82h1.35v2.34l-.27-.28a2.85,2.85,0,0,1,.58-1.1,3.42,3.42,0,0,1,1-.81,2.38,2.38,0,0,1,1.15-.3,3.19,3.19,0,0,1,.7.08,2,2,0,0,1,.55.19l-.35,1.42a1.76,1.76,0,0,0-.56-.19,2.61,2.61,0,0,0-.6-.08,2.24,2.24,0,0,0-1.57.62,2.6,2.6,0,0,0-.46.64,1.85,1.85,0,0,0-.15.74v3.55Zm8.08,0v-6.82H212v6.82Zm.65-8.41a.92.92,0,0,1-.66-.22,1,1,0,0,1,0-1.24,1,1,0,0,1,.66-.23.93.93,0,0,1,.67.22.85.85,0,0,1,.23.62.81.81,0,0,1-.24.61A.89.89,0,0,1,211.27,112Zm7.22,8.54a5.92,5.92,0,0,1-1.93-.3,3.3,3.3,0,0,1-1.43-1l.91-.81a3.17,3.17,0,0,0,1.06.72,4.12,4.12,0,0,0,1.93.19,1.93,1.93,0,0,0,.55-.14,1,1,0,0,0,.4-.27.57.57,0,0,0,.16-.41c0-.26-.18-.45-.52-.59a4.39,4.39,0,0,0-.63-.19c-.24-.07-.52-.13-.83-.19a12.5,12.5,0,0,1-1.36-.36,2.93,2.93,0,0,1-1-.51,1.87,1.87,0,0,1-.42-.56,1.91,1.91,0,0,1-.14-.74,1.5,1.5,0,0,1,.23-.81,2.11,2.11,0,0,1,.64-.62,3,3,0,0,1,1-.4,4.49,4.49,0,0,1,1.18-.15,5.59,5.59,0,0,1,1.14.12,4.89,4.89,0,0,1,1.1.36,3,3,0,0,1,.87.61l-.73.89A3.29,3.29,0,0,0,220,115a3.84,3.84,0,0,0-.83-.32,3.27,3.27,0,0,0-.8-.11,4.17,4.17,0,0,0-.61,0,2.09,2.09,0,0,0-.56.14,1.11,1.11,0,0,0-.4.26.56.56,0,0,0-.14.38.86.86,0,0,0,.09.3.94.94,0,0,0,.25.23,2.37,2.37,0,0,0,.65.28c.28.08.61.16,1,.23a9.68,9.68,0,0,1,1.26.31,3.36,3.36,0,0,1,1,.45,1.37,1.37,0,0,1,.48.54,1.3,1.3,0,0,1,.17.7,1.71,1.71,0,0,1-.4,1.14,2.48,2.48,0,0,1-1.07.74A4.2,4.2,0,0,1,218.49,120.53Zm8.79,0a3.8,3.8,0,0,1-1.87-.45,3.45,3.45,0,0,1-1.29-1.28,3.67,3.67,0,0,1-.46-1.82,3.39,3.39,0,0,1,.49-1.83,3.31,3.31,0,0,1,1.31-1.26,3.9,3.9,0,0,1,1.92-.46,4.21,4.21,0,0,1,1.21.17,3.28,3.28,0,0,1,1,.46,2.46,2.46,0,0,1,.66.62,1.31,1.31,0,0,1,.26.69l-.35,0v-1.76h1.35v6.82h-1.35v-1.77h.28a1.14,1.14,0,0,1-.3.67,2.67,2.67,0,0,1-.7.61,3.75,3.75,0,0,1-1,.44A3.9,3.9,0,0,1,227.28,120.53Zm.32-1.23A3.06,3.06,0,0,0,229,119a2.38,2.38,0,0,0,.91-.84,2.27,2.27,0,0,0,.32-1.18,2.22,2.22,0,0,0-.32-1.18A2.26,2.26,0,0,0,229,115a3.19,3.19,0,0,0-2.7,0,2.4,2.4,0,0,0-.91.82A2.22,2.22,0,0,0,225,117a2.27,2.27,0,0,0,.32,1.18,2.54,2.54,0,0,0,.91.84A3,3,0,0,0,227.6,119.3Zm10.22,1.23a5.86,5.86,0,0,1-1.92-.3,3.3,3.3,0,0,1-1.43-1l.91-.81a3,3,0,0,0,1.05.72,3.9,3.9,0,0,0,1.35.23,4,4,0,0,0,.59,0,1.78,1.78,0,0,0,.54-.14,1,1,0,0,0,.41-.27.61.61,0,0,0,.15-.41c0-.26-.17-.45-.52-.59a4.64,4.64,0,0,0-.62-.19c-.24-.07-.52-.13-.83-.19a12.73,12.73,0,0,1-1.37-.36,3,3,0,0,1-.95-.51,1.69,1.69,0,0,1-.41-.56,1.75,1.75,0,0,1-.15-.74,1.43,1.43,0,0,1,.24-.81,2.07,2.07,0,0,1,.63-.62,2.92,2.92,0,0,1,1-.4,4.43,4.43,0,0,1,1.18-.15,5.5,5.5,0,0,1,1.13.12,5.15,5.15,0,0,1,1.11.36,3.3,3.3,0,0,1,.87.61l-.73.89a3.64,3.64,0,0,0-.72-.44,3.48,3.48,0,0,0-.83-.32,3.2,3.2,0,0,0-.79-.11,4.08,4.08,0,0,0-.61,0,2,2,0,0,0-.56.14,1,1,0,0,0-.4.26.52.52,0,0,0-.15.38.86.86,0,0,0,.09.3,1.39,1.39,0,0,0,.25.23,2.52,2.52,0,0,0,.65.28c.29.08.61.16,1,.23a9.68,9.68,0,0,1,1.26.31,3.5,3.5,0,0,1,.95.45,1.54,1.54,0,0,1,.48.54,1.39,1.39,0,0,1,.17.7,1.72,1.72,0,0,1-.41,1.14,2.44,2.44,0,0,1-1.06.74A4.22,4.22,0,0,1,237.82,120.53Zm14.51,0a5.13,5.13,0,0,1-2.17-.44,3.74,3.74,0,0,1-1.49-1.24,3.16,3.16,0,0,1-.53-1.79,3.47,3.47,0,0,1,.31-1.5,3.27,3.27,0,0,1,.87-1.14,4.07,4.07,0,0,1,1.3-.74,4.91,4.91,0,0,1,1.59-.26,4,4,0,0,1,1.44.25,3.61,3.61,0,0,1,1.19.69,3.13,3.13,0,0,1,.78,1,3.18,3.18,0,0,1,.26,1.32l0,.65h-6.59l-.3-1.06h5.74l-.2.14v-.31a1.22,1.22,0,0,0-.39-.78,2.18,2.18,0,0,0-.84-.52,2.91,2.91,0,0,0-1.07-.2,4,4,0,0,0-1.43.25,2,2,0,0,0-1,.76,2.33,2.33,0,0,0-.33,1.31,2.06,2.06,0,0,0,.37,1.23,2.49,2.49,0,0,0,1.08.81,4.23,4.23,0,0,0,1.6.29,3.78,3.78,0,0,0,1.39-.23,4.15,4.15,0,0,0,1-.57l.63,1a4.1,4.1,0,0,1-.89.52,6.1,6.1,0,0,1-1.14.38A5.71,5.71,0,0,1,252.33,120.53Zm6.85-.13v-6.82h1.34v1.69l-.38.09a3.12,3.12,0,0,1,.65-.91,3.49,3.49,0,0,1,1-.73,3.29,3.29,0,0,1,2.87.08,2.14,2.14,0,0,1,.95,1,3.31,3.31,0,0,1,.33,1.52v4.08h-1.34v-3.93a1.77,1.77,0,0,0-.25-1,1.37,1.37,0,0,0-.66-.62,1.92,1.92,0,0,0-1-.21,2.17,2.17,0,0,0-.89.17,2.43,2.43,0,0,0-.71.44,2.09,2.09,0,0,0-.46.61,1.46,1.46,0,0,0-.16.66v3.85h-1.34Zm20,.13a5.44,5.44,0,0,1-1.91-.33,4.45,4.45,0,0,1-1.54-1,4.16,4.16,0,0,1-1-1.48,5,5,0,0,1-.36-1.91,4.29,4.29,0,0,1,.39-1.83,4.47,4.47,0,0,1,1.06-1.47,4.69,4.69,0,0,1,1.56-1,5.16,5.16,0,0,1,1.89-.35,5.34,5.34,0,0,1,1.5.22A5.54,5.54,0,0,1,282,112a3.86,3.86,0,0,1,1,.77l-.88,1.09a5.45,5.45,0,0,0-.9-.66,3.63,3.63,0,0,0-1-.43,3.9,3.9,0,0,0-1.1-.16,3.41,3.41,0,0,0-1.27.24,3.33,3.33,0,0,0-1.1.66,3.29,3.29,0,0,0-.75,1,3.19,3.19,0,0,0-.27,1.33,3.41,3.41,0,0,0,.27,1.39,3,3,0,0,0,.78,1,3.76,3.76,0,0,0,1.14.64,4.53,4.53,0,0,0,1.38.22,3.83,3.83,0,0,0,1.16-.16,4.31,4.31,0,0,0,1-.43c.28-.18.54-.36.78-.55l.69,1.15a4.66,4.66,0,0,1-.93.65,6.18,6.18,0,0,1-1.3.52A5.3,5.3,0,0,1,279.14,120.53Zm10.21,0a4.77,4.77,0,0,1-2.11-.45,3.63,3.63,0,0,1-1.44-1.27,3.48,3.48,0,0,1,0-3.66,3.53,3.53,0,0,1,1.44-1.26,4.64,4.64,0,0,1,2.11-.46,4.56,4.56,0,0,1,2.09.46,3.51,3.51,0,0,1,1.43,1.26,3.42,3.42,0,0,1,0,3.66,3.6,3.6,0,0,1-1.43,1.27A4.69,4.69,0,0,1,289.35,120.53Zm0-1.22a3,3,0,0,0,1.37-.3,2.4,2.4,0,0,0,1-.82A2,2,0,0,0,292,117a2,2,0,0,0-.34-1.21,2.4,2.4,0,0,0-1-.82,3,3,0,0,0-1.37-.3,3.19,3.19,0,0,0-1.4.3,2.53,2.53,0,0,0-1,.83,2,2,0,0,0-.34,1.2,2,2,0,0,0,.34,1.21,2.51,2.51,0,0,0,1,.82A3.19,3.19,0,0,0,289.35,119.31Zm9.68,1.22a5.88,5.88,0,0,1-1.93-.3,3.3,3.3,0,0,1-1.43-1l.91-.81a3.17,3.17,0,0,0,1.06.72,4.12,4.12,0,0,0,1.93.19,1.93,1.93,0,0,0,.55-.14,1,1,0,0,0,.4-.27.62.62,0,0,0,.16-.41c0-.26-.18-.45-.52-.59a4.83,4.83,0,0,0-.63-.19c-.24-.07-.52-.13-.83-.19a12.5,12.5,0,0,1-1.36-.36,2.93,2.93,0,0,1-.95-.51,1.72,1.72,0,0,1-.42-.56,1.91,1.91,0,0,1-.14-.74,1.5,1.5,0,0,1,.23-.81,2.11,2.11,0,0,1,.64-.62,3,3,0,0,1,1-.4,4.43,4.43,0,0,1,1.18-.15,5.59,5.59,0,0,1,1.14.12,5.25,5.25,0,0,1,1.1.36,3,3,0,0,1,.87.61l-.73.89a3.29,3.29,0,0,0-.71-.44,3.84,3.84,0,0,0-.83-.32,3.27,3.27,0,0,0-.8-.11,4.08,4.08,0,0,0-.61,0,2.09,2.09,0,0,0-.56.14,1,1,0,0,0-.4.26.51.51,0,0,0-.14.38.86.86,0,0,0,.09.3.94.94,0,0,0,.25.23,2.43,2.43,0,0,0,.64.28c.29.08.62.16,1,.23a9.68,9.68,0,0,1,1.26.31,3.36,3.36,0,0,1,.95.45,1.37,1.37,0,0,1,.48.54,1.39,1.39,0,0,1,.17.7,1.71,1.71,0,0,1-.4,1.14,2.48,2.48,0,0,1-1.07.74A4.2,4.2,0,0,1,299,120.53Zm7-.13v-8.79h1.34v8.79Zm-1.86-5.52v-1.3h5.37v1.3Zm11.22,5.65a3.84,3.84,0,0,1-1.88-.45,3.49,3.49,0,0,1-1.28-1.28,3.57,3.57,0,0,1-.46-1.82,3.47,3.47,0,0,1,.48-1.83,3.33,3.33,0,0,1,1.32-1.26,3.9,3.9,0,0,1,1.92-.46,4.26,4.26,0,0,1,1.21.17,3.11,3.11,0,0,1,1,.46,2.51,2.51,0,0,1,.67.62,1.31,1.31,0,0,1,.26.69l-.35,0v-1.76h1.35v6.82h-1.35v-1.77h.28a1.29,1.29,0,0,1-.3.67,2.67,2.67,0,0,1-.7.61,3.75,3.75,0,0,1-1,.44A4,4,0,0,1,315.4,120.53Zm.32-1.23a3,3,0,0,0,1.35-.3,2.31,2.31,0,0,0,.91-.84,2.19,2.19,0,0,0,.33-1.18,2.14,2.14,0,0,0-.33-1.18,2.2,2.2,0,0,0-.91-.82,3.17,3.17,0,0,0-2.69,0,2.4,2.4,0,0,0-.91.82,2.22,2.22,0,0,0-.32,1.18,2.27,2.27,0,0,0,.32,1.18,2.54,2.54,0,0,0,.91.84A3,3,0,0,0,315.72,119.3Zm12.77,1.1v-9.1h4.68a2.92,2.92,0,0,1,1.46.38,3,3,0,0,1,1.07,1,2.66,2.66,0,0,1,.4,1.45,2.56,2.56,0,0,1-.43,1.44,3.11,3.11,0,0,1-1.12,1A3,3,0,0,1,333,117H329.9v3.38Zm6.34,0-2.76-4.11,1.47-.32,3,4.44Zm-4.93-4.73H333a1.62,1.62,0,0,0,1.39-.77,1.38,1.38,0,0,0,.22-.77,1.19,1.19,0,0,0-.25-.75,1.57,1.57,0,0,0-.63-.53,2,2,0,0,0-.9-.2h-3Zm10.15,4.73v-6.82h1.34v6.82Zm.65-8.41a.92.92,0,0,1-.66-.22,1,1,0,0,1,0-1.24,1,1,0,0,1,.66-.23.93.93,0,0,1,.67.22.85.85,0,0,1,.23.62.78.78,0,0,1-.25.61A.85.85,0,0,1,340.7,112Zm7.76,8.54a4.09,4.09,0,0,1-2-.47,3.64,3.64,0,0,1-1.37-1.27,3.53,3.53,0,0,1,0-3.62,3.72,3.72,0,0,1,1.37-1.27,4.09,4.09,0,0,1,2-.47,5,5,0,0,1,2,.37,3.16,3.16,0,0,1,1.41,1l-.74,1a3.14,3.14,0,0,0-.73-.59,4.38,4.38,0,0,0-.91-.41,2.89,2.89,0,0,0-2.25.15,2.32,2.32,0,0,0-.9.83A2.29,2.29,0,0,0,346,117a2.19,2.19,0,0,0,.34,1.21,2.54,2.54,0,0,0,.92.83,2.79,2.79,0,0,0,1.29.3,3.51,3.51,0,0,0,1-.13,4.44,4.44,0,0,0,.86-.36,6.39,6.39,0,0,0,.71-.5l.73,1a5.52,5.52,0,0,1-1.46.86A5.15,5.15,0,0,1,348.46,120.53Zm9.16,0a3.83,3.83,0,0,1-1.87-.45,3.45,3.45,0,0,1-1.29-1.28A3.67,3.67,0,0,1,354,117a3.47,3.47,0,0,1,.48-1.83,3.38,3.38,0,0,1,1.31-1.26,3.93,3.93,0,0,1,1.93-.46,4.19,4.19,0,0,1,1.2.17,3.17,3.17,0,0,1,1,.46,2.32,2.32,0,0,1,.66.62,1.23,1.23,0,0,1,.26.69l-.35,0v-1.76h1.35v6.82h-1.35v-1.77h.29a1.29,1.29,0,0,1-.3.67,2.84,2.84,0,0,1-.7.61,4.07,4.07,0,0,1-1,.44A4,4,0,0,1,357.62,120.53Zm.33-1.23a3,3,0,0,0,1.35-.3,2.38,2.38,0,0,0,.91-.84,2.27,2.27,0,0,0,.32-1.18,2.22,2.22,0,0,0-.32-1.18,2.26,2.26,0,0,0-.91-.82,2.92,2.92,0,0,0-1.35-.3,2.88,2.88,0,0,0-1.34.3,2.33,2.33,0,0,0-.91.82,2.14,2.14,0,0,0-.33,1.18,2.19,2.19,0,0,0,.33,1.18,2.46,2.46,0,0,0,.91.84A3,3,0,0,0,358,119.3Zm8.41,1.24a1.22,1.22,0,0,1-.87-.26.91.91,0,0,1-.29-.71.94.94,0,0,1,.29-.68,1.18,1.18,0,0,1,.87-.3,1.28,1.28,0,0,1,.86.26,1,1,0,0,1,0,1.41A1.14,1.14,0,0,1,366.36,120.54Z"/></svg>