<svg xmlns="http://www.w3.org/2000/svg" viewBox="0 0 1024 1024"><defs><style>.cls-1{fill:#3d1600;}</style></defs><g id="Capa_2" data-name="Capa 2"><path class="cls-1" d="M578.51,631.66c1.69,4.08,1,6.33-3,8.14a83.16,83.16,0,0,1-8.36,3c-2.9,1-5.83,1.83-8.73,2.79a15.11,15.11,0,0,0-8.76,7.6c-.89,1.66-1.76,3.32-2.73,5.16a6.88,6.88,0,0,0,1.73.72c3.44.4,6.89.8,10.35,1a10.63,10.63,0,0,0,6.59-1.81c2.65-1.71,5.72-2,8.63-2.86a3.63,3.63,0,0,1,1,0c1.8.08,3,1,3.34,2.41s-.35,2.72-1.94,3.63c-2.35,1.35-4.77,2.61-7,4.16-3.33,2.31-6.5,4.92-8.3,8.66a14.88,14.88,0,0,0-1.4,5.44,5.06,5.06,0,0,0,4.93,5.71,12.1,12.1,0,0,0,5.31-.74,63.36,63.36,0,0,0,18.41-11.43c1.35-1.2,2.08-3.12,3-4.75a4.6,4.6,0,0,1,4.64-2.64,4.52,4.52,0,0,1,4,3.87,9.6,9.6,0,0,1-.2,3.66,21.1,21.1,0,0,1-1.62,3.88c-1,2-2,4-3,6a23.62,23.62,0,0,0-.92,3,19.53,19.53,0,0,0,12.2-3.11,21.29,21.29,0,0,0,4-3.3c2.31-2.41,3-5.45,2.87-8.7-.05-1.82-.07-3.64-.16-5.45a9.38,9.38,0,0,1,1.55-6.06,48.21,48.21,0,0,1-2.6-4.5c-1.52-3.42-1.54-7.08-1.21-10.72.82-9.06,4.07-17.31,8.45-25.19A137.09,137.09,0,0,1,636,596.61a248.88,248.88,0,0,1,28.4-27.93c26.65-22.39,56.42-39,90.19-48a165,165,0,0,1,42.78-6.07c8.88,0,17.67.88,26,4.16,6,2.35,11.11,5.9,14.52,11.47,4.8,7.84,5.1,16,1.57,24.44a25.56,25.56,0,0,1-5.87,8.8,5.74,5.74,0,0,0-1.14,1.58,101.54,101.54,0,0,1-9,14,441.33,441.33,0,0,1-28.26,34.13A475.17,475.17,0,0,1,753.8,653.6,376.07,376.07,0,0,1,686.13,700a380,380,0,0,1-44.46,20.57c-.7.26-1.37.57-2,.89-.13.06-.22.22-.42.44,5,4.19,3.42,8.86.56,14,1-.18,1.71-.24,2.35-.41a77,77,0,0,1,16.56-2.82,16.39,16.39,0,0,1,3.21.2c5.17.89,7.82,5.13,6.41,10.27-1,3.7-3.37,6.58-5.82,9.39-1,1.16-2.09,2.26-3.39,3.65,1,0,1.66.14,2.29.1,5-.28,10-.61,15-.9q19.4-1.09,38.78-2.18,13-.74,25.93-1.52l21-1.21,18-1.11c4.11-.26,8.22-.68,12.34-.81,6.42-.2,12.84-.19,19.26-.31,3.88-.07,7.75-.24,11.62-.35,7.08-.2,14.17-.41,21.25-.59,5.85-.15,11.69-.21,17.53-.39,8.57-.25,17.14-.56,25.71-.84,4.12-.14,8.24-.24,12.36-.37q13.23-.42,26.45-.84c7.91-.24,15.83-.45,23.74-.68,9.89-.28,19.78-.58,29.67-.83q10.86-.27,21.74-.4c4.19,0,8.38,0,12.58.26-1.66.24-3.32.56-5,.7-7.56.62-15.12,1.19-22.68,1.77-8.87.67-17.75,1.36-26.63,2-6.74.5-13.49.94-20.23,1.4q-11.83.82-23.68,1.64-12.84.87-25.68,1.7l-28.14,1.83c-9.87.65-19.75,1.33-29.62,2-5.68.37-11.36.65-17,1-7.32.49-14.64,1.14-22,1.51-5.18.27-10.38.21-15.56.26-4.71,0-9.41,0-14.11.06l-19.75.1c-3.54,0-7.08.08-10.62.07-5.69,0-11.37-.08-17.05-.09-8.65,0-17.3,0-25.95-.07-6.25,0-12.5-.27-18.75-.4-4.45-.1-8.9-.07-13.34-.32a5.3,5.3,0,0,0-3.75,1.37c-3.68,2.79-7.3,5.68-11.16,8.2-3.57,2.34-7.26,4.62-11.43,5.83a53,53,0,0,1-6,1.16,5.67,5.67,0,0,1-1.73-.41c.61-1.26,1.07-2.38,1.68-3.4,2.37-4,5.86-6.91,9.21-10C641,756,646.53,751,652.07,745.92c.95-.88,1.74-1.93,3-3.38-1.89.24-3.18.33-4.44.57a107.25,107.25,0,0,0-29.93,10.79c-2.81,1.48-5.2,3.76-7.83,5.62a55.1,55.1,0,0,1-5.38,3.51,4.69,4.69,0,0,1-5.55-.64c-2.53-2.12-2.43-5.7.31-7.95a50.71,50.71,0,0,1,5.64-4c5-3,9.32-6.81,13.68-10.59,2.68-2.32,5.18-4.85,7.72-7.32a24.28,24.28,0,0,0,1.82-2.21l-.27-.46a22.19,22.19,0,0,0-3.07.37q-12.07,3.21-24.13,6.5c-4.13,1.13-8.23,2.4-12.37,3.56a17.47,17.47,0,0,1-3.65.65c-2.87.14-3.84-.9-3.76-3.94l-2.58-.09c3.81-2.32,7.13-4.46,10.56-6.4,10.57-6,21.57-11.06,32.67-15.94,16.93-7.45,33.84-14.93,50.3-23.39A396.07,396.07,0,0,0,740.56,649a409,409,0,0,0,36.1-32c8.42-8.5,16.82-17,24.93-25.83,7.15-7.76,13.91-15.89,20.77-23.93a8.28,8.28,0,0,0,1.44-3.32c.74-3,1.39-6,2-8.94a78.61,78.61,0,0,0,1.31-8.32,12.23,12.23,0,0,0-7-12.62c-5.14-2.72-10.74-3.74-16.46-4.21-17-1.39-33.58,1.33-49.89,5.94a205.4,205.4,0,0,0-56.45,26A251.4,251.4,0,0,0,652,599.59a192.54,192.54,0,0,0-17.91,21.48c-6.22,8.85-10.65,18.43-12.18,29.23a19.17,19.17,0,0,1-2.82,8.33c4,5.19,3.57,11.06,2.85,16.89-.68,5.48-3.86,9.54-8.1,12.87a29.94,29.94,0,0,1-20.17,6.2c-3.71-.13-7.79-2.2-7.92-7.47a12.29,12.29,0,0,0-.28-1.62c-1.69.89-3.2,1.72-4.73,2.51a35.2,35.2,0,0,1-10.87,4c-10.09,1.5-17.66-7.17-15.22-17.59a30.74,30.74,0,0,1,2.6-5.86c.34-.72.82-1.38,1.49-2.48-3.73-.46-7.13-.9-10.54-1.31-1.39-.17-2.81-.16-4.18-.42a6.24,6.24,0,0,1-5.37-7.56,15.31,15.31,0,0,1,1.16-3.78c4.58-10.29,11.86-17.55,23.08-20.34,2.48-.61,5-1.3,7.43-1.9a4.5,4.5,0,0,0,2.46-1.49c5.55-6.23,11.21-12.35,16.73-18.6,5.73-6.49,11.59-12.88,16.75-19.87a158.58,158.58,0,0,0,23.53-44.49,126.13,126.13,0,0,0,6.55-32.22,51.92,51.92,0,0,0-1.26-16.71,23,23,0,0,0-1.42-3.95,5.88,5.88,0,0,0-1.66-2c-1-.79-2.16-1.42-3.51-2.28,6.05-1.07,11.72-2,17.35-3.1a53.29,53.29,0,0,0,32.71-19.88,81.7,81.7,0,0,0,16.79-37.86,41.44,41.44,0,0,0,.18-8.63c-.23-4.14-2.36-7.29-5.69-9.69a46.19,46.19,0,0,0-11.09-5.42l-2.1-.76c-1.94-.7-3.87-1.57-5.84,0-.35.29-1.06.14-1.87.21.62-2,.71-3.75,2.57-5,1.31-.87,2-2.62,3.19-3.71,5.32-4.82,10.76-9.49,16.07-14.32a57.55,57.55,0,0,0,5.22-5.59q3.11-3.69,6-7.6a7.37,7.37,0,0,0,1-2.73c.19-.79,0-1.66.21-2.45,2-7.78-.26-14.61-4.61-21-1.25-1.84-2.45-3.72-3.56-5.64a3.81,3.81,0,0,0-3.76-2.27,4.21,4.21,0,0,1-2.09-.55c-9.65-5.25-19.87-5.92-30.31-3.36-12.54,3.08-22.34,10.31-29.76,20.83a14.94,14.94,0,0,0-2.81,7.25,68.35,68.35,0,0,1-7.16,1.73,4.51,4.51,0,0,1-4.75-2.53,36.9,36.9,0,0,1-2.55-6.41,36.62,36.62,0,0,0-6.22-13.11c-6.21-7.84-14.5-10.92-24.3-10.09a48.77,48.77,0,0,0-18.95,5.31c-3.23,1.72-6.49,1.68-9.82,1.24a80.67,80.67,0,0,1-8-1.91c.25-1.13.44-2.23.74-3.3,1.56-5.57,3.42-11.06,4.67-16.69a83.69,83.69,0,0,0-.73-40.94c-2.45-8.88-6.78-16.65-14-22.61-10.27-8.53-22-11.75-35.16-9.45C489.64,241,480.72,246,472.87,253a59,59,0,0,0-13.95,18.15,41.13,41.13,0,0,0-4.27,22.34,77.59,77.59,0,0,0,8.06,28.66c1.29,2.49,2.86,4.82,4.28,7.24.49.84.94,1.71,1.36,2.47-1.1,1.12-2.42,1.94-2.93,3.12s-.16,2.65-.19,4.3c-1.21,1.16-2.94,1.28-5,.8a37.37,37.37,0,0,0-19.57.62,38.6,38.6,0,0,1-3.87.84,30.43,30.43,0,0,0-18.72,11.64,45.86,45.86,0,0,0-10.18,28.16c-.11,6.78,1.39,13.06,6,18.38,1.88,2.15,3,4.93,4.88,7.13a41.71,41.71,0,0,0,6.39,6.14,5.78,5.78,0,0,1,2.63,4.5c.12,2.55.19,5.12.06,7.67-.29,5.86-.59,11.72-1.1,17.56a30.14,30.14,0,0,1-10,19.93c-.72.67-1.44,1.35-2.15,2-4.17,4.12-9.1,4.86-14.43,2.93a45.16,45.16,0,0,1-16.92-10.94,22.92,22.92,0,0,1-2.3-3.3c-6.48.68-10.63-3.19-14.27-7.57a318.29,318.29,0,0,1-29.14-40.28,98.84,98.84,0,0,1-14.36-56.75c.39-7.75,1.28-15.48,1.95-23.21.31-3.62.61-7.24,1-10.86.24-2.45.11-5,1.62-7.16a2.07,2.07,0,0,0,.19-1.2c-.32-5.6-.59-11.2-1-16.79a10.76,10.76,0,0,0-2.12-5.74c-1.47-1.9-2.55-2.08-4.27-.43a14.56,14.56,0,0,0-4.67,11.32c.19,5.78.48,11.55.69,17.33a30.76,30.76,0,0,1-.09,4c-.45,4.61-3.84,7.23-8.4,6.63s-8-3-10.92-6.29a72.42,72.42,0,0,1-10.54-15.51c-2.15-4.18-4.48-8.26-6.74-12.38a12.58,12.58,0,0,0-.84-1.22c-1.78-2.45-3-2.57-5.09-.33a17.78,17.78,0,0,0-4.61,15.59A38.77,38.77,0,0,0,281,324.46a7.65,7.65,0,0,0,2.36,1.22c.68.3,1.45.38,2.09.73a3.43,3.43,0,0,1,1,5.47c-1.82,2-3.9,3.47-7,2.64a22.21,22.21,0,0,0-4.91-.42c-4-.17-8.09-.27-12.13-.45a8,8,0,0,0-5.82,2.13c-3.94,3.26-4.45,7.71-4.93,12.25-.13,1.23.72,1.85,1.65,2.21,2.6,1,5.22,2.05,7.9,2.88,7.25,2.24,14.56,4.35,21.82,6.58,9.93,3,17.28,9.41,22.88,18,4,6.17,7,12.91,9.94,19.62,4.88,11,9.55,22.13,14.64,33a106.84,106.84,0,0,0,25.64,34.6c6.88,6.17,13.89,12.2,20.8,18.35a170,170,0,0,1,16.4,16.14,10,10,0,0,1,1.16,1.6,15.45,15.45,0,0,0,4.75,5.52c1.84,1.23,2.54,3.4,3,5.53a25.2,25.2,0,0,1,.27,9.12c-1.12,8.49-3.85,16.4-9.08,23.28-2.53,3.32-5.46,6.22-9.76,7.21a4.45,4.45,0,0,0-.7.24c-3.06,1.33-3.86,1.16-6-1.26-8.81-10.06-18-19.78-27.76-28.92a247.19,247.19,0,0,0-33.93-26.9,215.42,215.42,0,0,0-44.52-22.06,234.89,234.89,0,0,0-29-8.56c-10.6-2.36-21.31-3.9-32.21-3.07a37,37,0,0,0-13.83,3.48,18.73,18.73,0,0,0-10.44,13.91c-1.22,6.12-.5,12.17.82,18.18,2.13,9.64,5.77,18.76,9.85,27.7a461.25,461.25,0,0,0,28,51.23,288.68,288.68,0,0,0,28.43,38.93c6.71,7.61,13.64,15,20.83,22.2,11.34,11.31,23,22.25,34.49,33.45,11,10.76,21.33,22.09,29.67,35.1,5.59,8.72,10.44,17.79,12.76,28,.2.87.7,1.67,1,2.54.62,2.13,1.27,4.26,1.73,6.42a5.84,5.84,0,0,1-1.23,4.89,10.72,10.72,0,0,0-1.08,2.17c-.46,1-.89,2.07-1.52,3.56-.88-1.32-1.52-2.22-2.11-3.16-1.74-2.8-3.54-5.58-5.16-8.45a3.21,3.21,0,0,0-2.42-1.86,23,23,0,0,0-17.6,4.06c-3,2.21-3.46,5.67-3.72,9.1-.56,7.24.59,14.33,2.18,21.36,1,4.42,2.28,8.79,3.36,13.19a52.39,52.39,0,0,1,1.21,6.31,9.9,9.9,0,0,1-.32,3.67,4.94,4.94,0,0,1-8.21,2.6,13.91,13.91,0,0,1-3.92-5.64,92.87,92.87,0,0,1-5.53-20.28c-.81-5-1.2-10-1.71-15-.12-1.11-.27-2-1.43-2.62-4.73-2.35-9.33-5-14.5-6.35a35.71,35.71,0,0,0-4.37-.79,6.55,6.55,0,0,0-6,2.26,28.66,28.66,0,0,0-5.51,8.45c-1.44,3.67-.86,7.1.95,10.47,1.9,3.53,4.76,6.31,7.23,9.39a25.26,25.26,0,0,1,3.28,4.9c1.56,3.33.07,5.45-3.63,5.6a8.54,8.54,0,0,1-5.64-1.53,64.82,64.82,0,0,1-6.23-5.23,3.9,3.9,0,0,0-3-1.31c-2.47,0-4.95-.09-7.41,0a14.09,14.09,0,0,0-4.1.69,112.79,112.79,0,0,1-19,4.63c-7.21,1.27-14.44,2.46-21.71,3.32-5.81.68-11.68.88-17.52,1.18Q174.82,793,153,794q-19.29.88-38.58,1.67c-6.92.29-13.85.52-20.77.77-10.63.39-21.26.79-31.9,1.14q-11.25.38-22.5.64-10.87.25-21.76.36a21.7,21.7,0,0,1-7.94-1.75c3.29.08,6.28.35,9.25.18,7.08-.38,14.14-1,21.21-1.45,3.71-.25,7.42-.36,11.13-.59q14.82-.9,29.63-1.86l29.61-1.91q13.08-.86,26.15-1.74c6.33-.43,12.66-.88,19-1.39,6.08-.48,12.15-1.06,18.23-1.58,5.09-.43,10.18-.79,15.27-1.25,5.82-.52,11.64-1.12,17.46-1.66,2.62-.25,5.25-.47,7.87-.66,7.65-.55,15.31-.91,22.93-1.66,6.8-.66,13.55-1.73,20.32-2.64,2.42-.32,4.83-.68,7.33-1-.88-2.09-1.79-3.94-2.44-5.88a22.84,22.84,0,0,1,.36-15.78A34.41,34.41,0,0,1,273,741.53a16.12,16.12,0,0,1,12-3.66,41.54,41.54,0,0,1,19,6.63l1.68,1.06a3.06,3.06,0,0,0,.49,0C310.36,732,321,727.84,334.3,727.15c-1.08-2-2-3.77-3-5.53a187.64,187.64,0,0,0-31.55-39.87c-10.64-10.37-21.43-20.59-32-31-13.2-13-25.81-26.49-37-41.27a412.16,412.16,0,0,1-28.86-44.38,394.39,394.39,0,0,1-20.13-39.45c-4.09-9.48-7.59-19.18-9.38-29.41a63.69,63.69,0,0,1-.89-15.78c1.07-14.54,9.73-25.68,23.57-30.31,8-2.66,16.15-3.27,24.46-2.89,14.05.65,27.65,3.66,41.07,7.7a217.39,217.39,0,0,1,38.77,15.66A200.59,200.59,0,0,1,331.69,492a271.31,271.31,0,0,1,40.44,40.66c2.9,3.59,5.59,7.34,8.39,11,.24.32.54.6.93,1a13.88,13.88,0,0,0,1.3-1.55c5.18-8.22,8.93-17,9.73-26.76a38.78,38.78,0,0,0-.42-6.87,2.19,2.19,0,0,0-1.73-1.86,38,38,0,0,1-12.72-7.55c-9.76-8.52-19.55-17-29-25.85a125.79,125.79,0,0,1-28.63-39.77c-5.11-11.08-9.74-22.39-14.75-33.52a182.06,182.06,0,0,0-8.13-16.38c-3.57-6.19-8.39-11.29-15.43-13.65-4.46-1.5-9-2.85-13.48-4.21-5.3-1.59-10.67-2.95-15.91-4.73a29,29,0,0,1-7.18-3.78,11.07,11.07,0,0,1-4.71-11.06,79,79,0,0,1,2.21-10.65c1-3.53,3.64-6,6.13-8.55A16.87,16.87,0,0,1,263,322.74c.73.06,1.46.06,2.61.09-.42-.88-.67-1.51-1-2.1a47.73,47.73,0,0,1-6-16.68c-1.32-9.48,1.11-17.84,7.81-24.82a15.7,15.7,0,0,1,5.75-3.78c5.42-2.09,10.3-.87,14.05,3.61,3.41,4.08,5.85,8.78,8.29,13.46a72.45,72.45,0,0,0,8.26,13.17,6.86,6.86,0,0,0,2.36,2c-.09-2-.25-4.08-.26-6.12a97.47,97.47,0,0,1,.16-11.6,24.21,24.21,0,0,1,8.15-15.18c7.38-6.8,16.19-3.72,20.61,2.08a20.87,20.87,0,0,1,3.87,8.5c1.8,8.74,2.35,17.59.47,26.32-.89,4.11-.86,8.17-1.13,12.25-.5,7.92-1.11,15.83-1.44,23.75a89,89,0,0,0,5.47,36A111.76,111.76,0,0,0,354.59,408q11.3,16,23.92,30.92c1.17,1.38,2.35,2.77,3.59,4.09a10.84,10.84,0,0,0,4.23,3.29,5.61,5.61,0,0,1,2.19,1.94c3.65,4.63,8.68,7,14.11,8.64a4.07,4.07,0,0,0,4.27-1.1c4.5-4.22,7.54-9.08,8-15.43s1.08-12.51,1.75-18.75a5.49,5.49,0,0,0-1.83-4.82q-4.63-4.63-9.08-9.48c-6.69-7.25-9.29-16-9.27-25.69a57.77,57.77,0,0,1,12.48-35.84c9.52-12.41,22.29-18.17,37.79-18.24,1.13,0,2.26,0,3.65-.05-.38-.86-.63-1.53-1-2.14a81.11,81.11,0,0,1-9.75-31.47,52.15,52.15,0,0,1,5.9-30.45c9.76-18.54,24.62-31.21,44.58-37.68a55,55,0,0,1,29.12-1.58c20,4.42,34.32,16.09,42.24,35.06,6,14.35,7.32,29.42,5.37,44.76-.52,4.08-1.65,8.07-2.5,12.1-.09.48-.21.95-.42,1.84,1.11-.29,1.94-.48,2.75-.72a60.45,60.45,0,0,1,18-2.84c16.91.32,29.24,8.05,37.1,23,.23.44.47.86.82,1.48.82-.83,1.57-1.56,2.28-2.32,12.44-13.41,27.73-20.85,46.06-21.5,12.14-.43,23.39,2.68,32.67,10.74,12.36,10.74,17.69,24.24,14.14,40.6a39.9,39.9,0,0,1-8.89,17.23,56,56,0,0,1-16.8,13.26c-.64.35-1.25.75-2.16,1.3,1,.45,1.66.83,2.39,1.09,10.61,3.87,15.78,12,16.17,22.87a56.39,56.39,0,0,1-3.44,20.42c-4.62,13.51-11.74,25.46-22.26,35.23-10.23,9.52-22.15,15.39-36.28,16.3-.41,0-.82.09-1.46.16.39,1.07.76,2,1.09,3a49.67,49.67,0,0,1,2.21,16.86,126.47,126.47,0,0,1-7,37.39,149.42,149.42,0,0,1-36,58.59,146.43,146.43,0,0,1-25.78,20.76C579.29,631.09,579,631.34,578.51,631.66Z"/><path class="cls-1" d="M538.57,328.86c-4-1.27-7.5-2.51-11.07-3.5a83,83,0,0,0-28-2.76c-5.76.4-11.53.77-17.12,2.42a18,18,0,0,0-6.15,3.08,25.64,25.64,0,0,1-4.1,2.13c-.68-1.16-1.31-2.1-1.8-3.11A36.48,36.48,0,0,1,467.16,304c2.76-15.09,10.1-27.31,23.12-35.74a32.67,32.67,0,0,1,19.49-5.48c9.41.4,16.71,4.8,22.05,12.39,6.74,9.58,9.69,20.5,10.7,32a39.27,39.27,0,0,1-1.47,15.43C540.38,324.69,539.43,326.7,538.57,328.86Z"/><path class="cls-1" d="M662.1,388.79c-2-6.55-5-12-10.21-16.08-3.49-2.71-7.69-3.64-11.94-4.36-.64-.11-1.33,0-2-.12-1.43-.25-1.93-.94-1.91-2.39a17.07,17.07,0,0,1,3.28-9.19,67.72,67.72,0,0,1,5.23-6.51,20,20,0,0,1,2.6-2.23c.32-.26.79-.35,1-.64,2-2.25,4.74-2.91,7.44-3.59,4.94-1.25,9.84-2.61,15-2.7,2.37,0,4.46-.6,6.52,1.34.95.9,2.42,1.23,2.88,2.75a1.62,1.62,0,0,0,.83.88c2,.86,2.64,2.66,3.32,4.42a27.28,27.28,0,0,1,.36,18c-.27,1-.61,1.89-1,2.81-1.46,3.92-3.43,7.48-7,9.94-3,2-5.83,4.28-8.91,6.14A12.23,12.23,0,0,1,662.1,388.79Z"/><path class="cls-1" d="M631.33,435.28a7.49,7.49,0,0,1-3.17,5.12,39.28,39.28,0,0,1-13.94,6.76,114.24,114.24,0,0,1-28.83,4.17,185,185,0,0,1-41.88-3.52,167.8,167.8,0,0,1-45.07-15.49,116,116,0,0,1-21.1-13.82c-9.93-8.29-18.15-18-23.47-29.89-.64-1.43-1.16-2.91-1.71-4.38a7.76,7.76,0,0,1-.34-1.19c-.5-2.19.16-3.87,1.69-4.39s2.85.2,3.91,2.2c1.63,3.06,3.1,6.2,4.81,9.2a78.06,78.06,0,0,0,17.82,21c11.05,9.33,23.64,16,37.16,20.91a186.46,186.46,0,0,0,48.54,10.5,178.59,178.59,0,0,0,43.46-1.2,98.46,98.46,0,0,0,18.21-4.48C628.65,436.36,629.86,435.86,631.33,435.28Z"/><path class="cls-1" d="M615.89,479.47c6.24-3.09,12.06-5.84,17.75-8.83a72.76,72.76,0,0,0,17.19-12c4.31-4.2,7.92-8.86,9.64-14.75,2.12-7.26-.46-13.64-7.19-17.1a33.76,33.76,0,0,0-7.43-2.6,38.19,38.19,0,0,0-13.06-.54,33.46,33.46,0,0,1-3.45.3c-1.88,0-3-.76-3.23-2.06-.26-1.45.55-2.67,2.28-3.38a8,8,0,0,1,1.42-.43c9.17-1.9,18.1-1.41,26.54,2.92,8.84,4.54,12.71,12.69,10.93,22.48a29.66,29.66,0,0,1-4,10.07c-5.76,9.49-14.18,15.92-23.94,20.81a55,55,0,0,1-16.87,5.49A14.17,14.17,0,0,1,615.89,479.47Z"/><path class="cls-1" d="M472.49,376.05c-1.41-.41-2.41-.67-3.4-1-4.54-1.5-9-3.19-13.63-4.47a30,30,0,0,0-19,1.25c-3.59,1.36-4.47,3.32-3.51,7.05a35.9,35.9,0,0,0,5.6,11.22,100,100,0,0,0,20.73,21.76c.66.53,1.76.89,1.38,2.08a2.51,2.51,0,0,1-2.4,1.85,7.68,7.68,0,0,1-3.79-.65,34.66,34.66,0,0,1-6.42-4.55,90.5,90.5,0,0,1-17-20.83,36,36,0,0,1-3.94-9.58c-1.45-6.11.73-10.88,6.58-13.21,8-3.19,16.23-3.78,24.38-.45,3.66,1.49,7.2,3.28,10.73,5.07A6.38,6.38,0,0,1,472.49,376.05Z"/><path class="cls-1" d="M437,504.46c-3.44,1.2-6.7.32-9.86-.9a42,42,0,0,1-10.38-6.22c-3.85-3-7.73-6-10.84-9.75a28.45,28.45,0,0,1-2.85-4.88,5.35,5.35,0,0,1-.28-1.67,6,6,0,0,1,5.14.41,43.12,43.12,0,0,1,6.6,3.86c5.55,4,11,8.18,16.47,12.29A18.12,18.12,0,0,1,437,504.46Z"/></g></svg>