<svg xmlns="http://www.w3.org/2000/svg" viewBox="0 0 1024 1024"><defs><style>.cls-1{fill:#3d1600;}</style></defs><g id="Capa_2" data-name="Capa 2"><path class="cls-1" d="M439.05,397.72c-12.61-1.82-23.71-3.78-34.89-5a251.65,251.65,0,0,0-85.16,5.7c-17.06,4.07-34.15,8.06-50.07,15.79a54.81,54.81,0,0,0-16.87,12.3c-2.95,3.21-7.05,5.36-11.22,8.42-2.6-3.12-5-5.62-6.94-8.39a110.81,110.81,0,0,1-21.11-67.74c.74-46.56,16.59-86.82,51.38-118.57,15.72-14.34,34.31-23.55,55.63-26.16,28.38-3.48,52.45,6,72.23,26.11,25,25.31,39.25,56.54,48,90.52,4,15.4,5.6,31.11,3.31,47C442.39,384.34,440.56,390.83,439.05,397.72Z"/><path class="cls-1" d="M838.9,515.48c-9.12-18.65-21-33.52-38.59-43-11.79-6.38-24.85-7.06-37.92-7.1-2,0-4,.61-6,.6-4.41,0-6.24-1.82-6.91-6.19-1.58-10.32,1.18-20,5.24-29.15,3.42-7.69,8-14.88,12.42-22.1,1.78-2.94,4.36-5.4,6.66-8,.81-.92,2.18-1.43,2.8-2.44,4.82-7.7,12.72-11.05,20.49-14.45,14.17-6.22,28.15-12.73,43.65-15.6,7.08-1.31,13.06-4,20.19.76,3.3,2.21,7.87,2.49,10,6.79a4.93,4.93,0,0,0,2.91,2.23c6.27,1.59,9.25,6.65,12.16,11.57,9.83,16.63,12.34,34.72,10.06,53.65-.36,3-.89,5.95-1.47,8.9-2.43,12.46-6.53,24.11-16,33.23-7.89,7.61-15.32,15.74-23.62,22.86C850.61,511.78,844.89,514.15,838.9,515.48Z"/><path class="cls-1" d="M770,670.07c.38,7.36-2.93,12.41-6.94,16.91-10.66,12-24,20.3-38.34,27.21-26.8,13-55.17,21.1-84.27,26.89a561.85,561.85,0,0,1-127.17,10.37c-48.62-1.48-96.34-8.83-142.69-23.86-24.38-7.91-48-17.86-70.1-30.85-33.86-19.87-63.31-44.76-85.21-77.8-2.63-4-4.91-8.14-7.31-12.25a27.05,27.05,0,0,1-1.62-3.39c-2.56-6.32-1.45-11.68,2.88-14s8.64-.82,12.82,4.64c6.4,8.34,12.38,17,19,25.15,17.88,22,39.56,39.64,63.87,54.07,37.75,22.42,78.74,36,121.7,44.06,49.87,9.38,100.13,11.25,150.61,7.18,44.1-3.55,87.49-11.17,129.53-25.3,18-6.06,35.71-13.09,52.32-22.52C762.51,674.63,765.87,672.53,770,670.07Z"/><path class="cls-1" d="M745.84,810.11C763,797.73,779,786.6,794.56,774.8c17-12.89,32.78-27.14,45.5-44.46,10.8-14.72,19.31-30.49,21.51-49,2.72-22.78-8.21-40.6-30.06-47.6a102.36,102.36,0,0,0-23.57-4.08c-13.37-1-26.49,1.34-39.38,4.91-3.38.93-6.73,2-10.17,2.63-5.62,1-9.39-.78-10.72-4.55-1.49-4.24.32-8.29,5.16-11.29a25.2,25.2,0,0,1,4-2c26.49-10.28,53.48-13.26,80.92-4.5,28.76,9.17,44.42,31.64,44,61.84-.16,11.22-2.89,21.84-7,32.15-12.49,31.3-34.5,54.78-61.29,74.28-14.66,10.67-30.38,19.37-47.75,24.86C759.75,809.89,753.73,811.18,745.84,810.11Z"/><path class="cls-1" d="M264.74,572c-4.41-.52-7.54-.79-10.65-1.27-14.36-2.2-28.64-5-43.07-6.57-20.1-2.12-38.86,3.17-56.16,13.23-10.05,5.86-11.71,12.16-7,22.85,5.24,11.85,13.52,21.59,22.39,30.8,21.37,22.17,46,40,72.92,54.83,2.25,1.24,5.72,1.77,5.19,5.53a7.68,7.68,0,0,1-6.27,6.75c-3.82.67-8.24,1.23-11.68-.06-7.44-2.79-14.92-6-21.49-10.44-22.77-15.21-43.77-32.57-61.2-53.89a109.3,109.3,0,0,1-16.56-26.72c-7.39-17.57-3.26-32.94,13.1-42.85,22.39-13.56,46.69-19.43,72.77-13.52,11.7,2.64,23.21,6.22,34.66,9.82C258.41,562.62,261.67,565.78,264.74,572Z"/></g></svg>